# Blender v2.65 (sub 0) OBJ File: '1-15.blend'
# www.blender.org
mtllib 15.mtl
o Plane.002
v 0.011781 0.000000 0.011781
v -0.011781 0.000000 0.011781
v 0.011781 0.000000 -0.011781
v -0.011781 0.000000 -0.011781
v 0.011781 0.013566 0.011781
v -0.011781 0.013566 0.011781
v 0.011781 0.013566 -0.011781
v -0.011781 0.013566 -0.011781
vt 0.732848 0.732848
vt 4.267152 0.732848
vt 4.267152 4.267152
vt 0.732848 4.267152
vt 4.267152 2.534950
vt 4.267152 0.500000
vt 0.732848 0.500000
vt 0.732848 2.534950
vt 0.267152 0.500000
vt 0.267152 2.534950
vt -3.267152 2.534950
vt -3.267152 0.500000
vn 0.000000 1.000000 -0.000000
vn -0.000000 -1.000000 0.000000
vn 0.000000 0.000000 -1.000000
vn -0.000000 0.000000 1.000000
vn -1.000000 0.000000 0.000000
vn 1.000000 0.000000 0.000000
g Plane.002_Plane.002_None
usemtl None
s off
f 2/1/1 1/2/1 3/3/1 4/4/1
f 6/1/2 8/4/2 7/3/2 5/2/2
f 5/5/3 1/6/3 2/7/3 6/8/3
f 3/9/4 7/10/4 8/11/4 4/12/4
f 1/7/5 5/8/5 7/5/5 3/6/5
f 4/9/6 8/10/6 6/11/6 2/12/6
o Plane.001
v 0.000000 0.028257 -0.079999
v 0.009999 0.028257 -0.079999
v -0.030000 0.028257 -0.079999
v -0.030000 0.028257 -0.109999
v 0.039999 0.028257 -0.079999
v 0.039999 0.028257 -0.109999
v 0.000000 0.028257 -0.149999
v 0.009999 0.028257 -0.149999
v -0.030000 0.028257 -0.119999
v 0.039999 0.028257 -0.119999
v -0.030000 0.028257 -0.149999
v 0.039999 0.028257 -0.149999
v 0.059999 0.028257 -0.109999
v 0.059999 0.028257 -0.119999
v 0.000000 0.028257 -0.169999
v 0.009999 0.028257 -0.169999
v -0.050000 0.028257 -0.109999
v -0.050000 0.028257 -0.119999
v 0.009999 0.020373 -0.019999
v 0.000000 0.020373 -0.059999
v 0.009999 0.020373 -0.059999
v -0.020000 0.020373 -0.019999
v -0.020000 0.020373 -0.059999
v 0.029999 0.020373 -0.019999
v 0.000000 0.020373 -0.019999
v 0.009999 0.020373 0.000000
v 0.000000 0.020373 0.000000
v 0.029999 0.020373 -0.059999
vt 0.500000 0.499874
vt 1.999876 0.499874
vt 1.999876 10.999870
vt 0.500000 10.999870
vt 0.999876 0.499874
vt 5.499876 4.999872
vt 5.499876 6.499872
vt 0.999876 10.999870
vt 0.500000 0.999870
vt 1.999876 0.999870
vt 1.999876 3.999870
vt 0.500000 3.999870
vt 0.499876 0.499872
vt 0.499876 -1.000128
vt 3.499876 -1.000128
vt 3.499876 0.499872
vt 0.000000 0.999872
vt 0.000000 2.499872
vt -3.000000 2.499872
vt -3.000000 0.999872
vt 0.500000 0.499876
vt 1.999876 0.499876
vt 1.999876 6.499875
vt 0.500000 6.499875
vt 0.500000 0.500000
vt 1.999876 0.500000
vt 1.999876 3.499876
vt 0.500000 3.499876
vt -2.500000 6.499875
vt -2.500000 0.499876
vt 0.999876 0.499875
vt 0.999876 -5.500124
vt 3.999876 -5.500124
vt 3.999876 0.499875
vt 5.499876 0.499874
vt 4.500000 -3.500126
vt 4.500000 6.999870
vt 0.999876 0.999870
vt 5.499876 -3.500128
vt 5.499876 0.999870
vt 0.000000 0.499872
vt 4.500000 4.999870
vt 0.000000 4.999870
vt -4.000000 4.999872
vt -4.000000 0.499874
g Plane.001_Plane.001_None_9.png
usemtl None_9.png
s off
f 9/13/1 10/14/1 16/15/1 15/16/1
f 10/17/1 14/18/1 18/19/1 16/20/1
f 15/21/1 16/22/1 24/23/1 23/24/1
f 18/25/1 14/26/1 21/27/1 22/28/1
f 12/29/1 17/30/1 26/31/1 25/32/1
f 33/33/1 27/34/1 29/35/1 28/36/1
f 35/37/1 34/38/1 27/39/1 33/40/1
f 33/33/1 28/36/1 31/41/1 30/42/1
f 29/43/1 27/44/1 32/45/1 36/46/1
f 10/17/1 13/47/1 14/18/1
f 12/29/1 9/48/1 15/49/1 17/30/1
f 16/50/1 18/51/1 20/52/1
f 17/53/1 15/54/1 19/55/1
f 9/13/1 12/56/1 11/57/1
o Plane
v 0.000000 0.038886 0.000000
v 0.009999 0.038886 0.000000
v 0.000000 0.038886 -0.019999
v 0.009999 0.038886 -0.019999
v 0.000000 0.038886 -0.059999
v 0.009999 0.038886 -0.059999
v -0.020000 0.038886 -0.019999
v -0.020000 0.038886 -0.059999
v 0.029999 0.038886 -0.019999
v 0.029999 0.038886 -0.059999
v 0.000000 0.028257 -0.079999
v 0.009999 0.028257 -0.079999
v 0.009999 0.058304 -0.079999
v 0.000000 0.058304 -0.079999
v -0.030000 0.028257 -0.079999
v -0.030000 0.028257 -0.109999
v 0.039999 0.028257 -0.079999
v 0.039999 0.028257 -0.109999
v 0.000000 0.028257 -0.149999
v 0.009999 0.028257 -0.149999
v -0.030000 0.028257 -0.119999
v 0.039999 0.028257 -0.119999
v -0.030000 0.058304 -0.109999
v -0.030000 0.058304 -0.079999
v -0.030000 0.028257 -0.149999
v 0.039999 0.028257 -0.149999
v 0.059999 0.028257 -0.109999
v 0.059999 0.028257 -0.119999
v 0.000000 0.028257 -0.169999
v 0.009999 0.028257 -0.169999
v -0.050000 0.028257 -0.109999
v -0.050000 0.028257 -0.119999
v 0.000000 0.026253 -0.079999
v 0.009999 0.026253 -0.079999
v 0.009999 0.026253 -0.074999
v 0.000000 0.026253 -0.074999
v 0.009999 0.020373 -0.019999
v 0.009999 0.024315 -0.069999
v 0.000000 0.024315 -0.069999
v 0.000000 0.020373 -0.059999
v 0.009999 0.024315 -0.074999
v 0.009999 0.020373 -0.059999
v 0.000000 0.024315 -0.074999
v -0.020000 0.020373 -0.019999
v -0.020000 0.020373 -0.059999
v 0.029999 0.020373 -0.019999
v 0.009999 0.022377 -0.069999
v 0.000000 0.022377 -0.069999
v 0.000000 0.022377 -0.064999
v 0.009999 0.022377 -0.064999
v 0.000000 0.020373 -0.019999
v 0.009999 0.020373 0.000000
v 0.000000 0.020373 0.000000
v 0.029999 0.020373 -0.059999
v 0.000000 0.020373 -0.064999
v 0.009999 0.020373 -0.064999
v 0.000000 0.038899 -0.079999
v 0.009999 0.038899 -0.079999
v -0.030000 0.038899 -0.109999
v 0.039999 0.058304 -0.079999
v 0.039999 0.038899 -0.109999
v 0.059999 0.038899 -0.109999
v -0.050000 0.038899 -0.109999
v -0.050000 0.038899 -0.119999
v -0.030000 0.038900 -0.119999
v 0.039999 0.038900 -0.119999
v 0.009999 0.038900 -0.149999
v -0.030000 0.058305 -0.149999
v 0.039999 0.058305 -0.149999
v 0.059999 0.038900 -0.119999
v 0.009999 0.038900 -0.169999
v 0.000000 0.038921 -0.149999
v 0.000000 0.038921 -0.169999
v 0.039999 0.058304 -0.109999
v -0.030000 0.058305 -0.119999
v 0.039999 0.058305 -0.119999
v 0.009999 0.058305 -0.149999
v 0.000000 0.058327 -0.149999
vt 0.999876 -2.500000
vt -0.500000 -2.500000
vt 0.999876 0.499876
vt -2.000124 6.499875
vt 0.999876 6.499875
vt 0.500000 0.499875
vt 1.999876 0.499875
vt 0.500000 -5.500124
vt -2.000124 0.499876
vt -2.500000 0.499875
vt 0.999870 0.000000
vt -2.000130 0.000000
vt -2.000130 1.596457
vt 0.999870 1.596457
vt 0.999876 0.594364
vt -2.000124 0.594364
vt -2.000124 -2.182583
vt 0.999876 -2.182583
vt 0.500000 0.749875
vt 1.999876 0.749875
vt 1.999876 1.499874
vt 0.500000 1.499874
vt 0.499875 0.594364
vt 2.749875 -1.300657
vt 2.749875 -1.591291
vt 1.999875 -1.591291
vt 0.500000 0.999875
vt 1.999876 0.999875
vt 1.999876 1.749875
vt 0.500000 1.749875
vt 0.999876 0.699343
vt -0.500000 0.699343
vt -0.500000 0.408709
vt 0.999876 0.408709
vt 0.500000 0.594364
vt -2.500000 0.594364
vt -2.500000 -2.182583
vt 0.500000 -2.182583
vt 3.499876 0.594364
vt 3.499876 -2.182583
vt -5.500124 0.594364
vt -5.500124 -2.182583
vt 0.499875 -2.182583
vt 0.999876 0.118074
vt -0.500000 0.118074
vt -0.500000 -0.182583
vt 0.999876 -0.182583
vt 1.999876 0.594364
vt 1.999876 -2.182583
vt 3.999876 0.594364
vt 3.999876 -2.182583
vt 3.500000 0.594364
vt 3.500000 -2.182583
vt 0.249874 0.118074
vt -0.500125 2.594364
vt -0.500125 -0.182583
vt 0.249874 -0.182583
vt 0.500000 0.249874
vt 1.999876 0.249874
vt 1.999875 -1.881926
vt 1.249874 -1.881926
vt 0.999876 0.000000
vt -0.500000 0.000000
vt -0.500000 -0.300657
vt 0.999876 -0.300657
vt 0.749875 0.699343
vt -1.500125 2.594364
vt -0.000125 0.408709
vt 0.749875 0.408709
vt 0.999875 0.408709
vt 0.999875 0.118074
vt 0.499874 0.000000
vt -2.500125 1.594364
vt -0.250125 -0.300657
vt 0.499874 -0.300657
vt 1.249874 -2.182583
vt 0.499876 0.594364
vt 0.499876 -2.182583
vt 6.499875 0.594364
vt 6.499875 -2.182583
vt 3.499874 -1.000000
vt 3.499874 -1.300657
vt 1.999876 1.249874
vt 0.500000 1.249874
vt 3.499874 0.596345
vt 0.000000 0.000000
vt -3.000000 0.000000
vt -3.000000 1.596345
vt 0.000000 1.596345
vt 0.499876 0.000000
vt -2.500124 0.000000
vt -2.500124 1.596345
vt 0.499876 1.596345
vt -4.000124 0.000000
vt -4.000124 1.596345
vt 0.499876 4.507120
vt 0.499876 0.499872
vt -4.000124 4.999870
vt 0.499876 4.999870
vt 0.999872 0.000000
vt -3.500126 0.000000
vt -3.500126 4.507120
vt 0.999872 1.596345
vt 2.499872 0.000000
vt 2.499872 1.596345
vt 0.999870 0.507232
vt -3.500128 -2.403543
vt -3.500128 0.507232
vt 0.499874 0.596345
vt -2.500125 0.594364
vt 0.499874 -1.000000
vt 0.499872 0.000000
vt 4.999870 0.000000
vt 4.999870 4.507232
vt 0.499872 1.596457
vt -3.500128 0.000000
vt -3.500128 1.596457
vt 0.999870 4.507232
vt 3.499876 0.000000
vt 3.499876 1.596457
vt 0.499876 1.596457
vt 5.499876 0.000000
vt 5.499876 4.507232
vt 0.999876 1.596457
vt -0.500000 1.599687
vt 0.000000 1.596457
vt 2.499872 1.596457
vt 0.500000 0.596345
vt -4.000000 3.507120
vt 0.500000 3.507120
vt 3.999870 0.000000
vt 3.999870 1.599687
vt 0.999870 1.599687
vt 0.500000 0.000000
vt 0.500000 1.599687
vt -4.000000 4.507232
vt -4.000000 0.000000
vt 0.999876 0.596457
vt 5.499876 3.507232
vt 0.999876 3.507232
vt -4.000000 4.507120
vt 0.500000 1.596345
vt 0.999876 0.499875
vt 0.999876 -5.500124
vt -0.500000 -5.500124
vt 4.999872 0.000000
vt 4.999872 1.596345
vt 0.499874 4.507120
vt -0.500000 0.499876
vt 0.000000 0.499872
vt 0.000000 4.999870
vt 4.500000 4.999870
vt 3.500000 -5.500124
vt 0.499874 0.507120
vt 4.999872 -2.403655
vt 4.999872 0.507120
vt 0.000000 0.999872
vt 4.500000 -3.500126
vt 0.000000 -3.500126
vt 0.000000 0.507232
vt 4.500000 -2.400313
vt 4.500000 0.510462
vt 0.999876 0.999870
vt 0.999876 -2.000130
vt -0.500000 -2.000130
vt -0.500000 0.999870
vt 0.500000 0.599687
vt 1.999876 0.596457
vt 1.999876 3.507232
vt 0.500000 3.510462
vt 0.499872 0.596457
vt 4.999870 3.507232
vt 0.499872 3.507232
vt 0.499872 0.507232
vt -1.000128 0.507120
vt -1.000128 -2.403655
vt 0.499872 -2.403543
vt 0.000000 -1.000128
vt -3.000000 -1.000128
vt -3.000000 0.499872
vt 0.499876 0.999872
vt -4.000124 6.999870
vt 0.499876 2.499872
vt 0.999876 0.499874
vt 0.999876 10.999870
vt 5.499876 4.999872
vt 4.500000 6.999870
vt 0.500000 0.999870
vt 1.999876 0.999870
vt 1.999876 -9.500126
vt 0.500000 0.499874
vt 0.500000 10.999870
vt 1.999876 0.499874
vt 0.999872 0.596345
vt -3.500126 3.507120
vt 0.999872 3.507120
vt 0.499876 0.507120
vt -4.000124 -2.403655
vt -4.000124 0.507120
vt 5.499876 0.499874
vt 0.500000 0.507120
vt 1.999876 0.507120
vt 1.999876 -2.403655
vt 0.500000 -2.403655
vt -0.500000 0.499875
vt -0.500000 3.499874
vt 0.999876 3.499874
vt 0.499876 -1.000128
vt -2.500124 -1.000128
vt -2.500124 0.499872
vn 0.000718 -1.000000 0.000000
vn -0.002153 -0.999998 0.000000
vn 0.000019 -1.000000 -0.000037
vn 0.000075 -1.000000 -0.000075
vn -0.000011 -1.000000 -0.000011
vn 0.000643 -1.000000 -0.000075
vn 0.000318 -1.000000 -0.000318
vn -0.002153 -0.999998 -0.000011
vn 0.000000 -1.000000 -0.000318
vn 0.000000 -1.000000 -0.000660
vn 0.000000 -1.000000 -0.000075
g Plane_Plane_None_35.png
usemtl None_35.png
s off
f 38/58/2 37/59/2 40/60/2
f 45/60/2 42/61/2 46/62/2
f 41/63/2 42/64/2 39/65/2
f 45/60/2 40/66/2 42/61/2
f 41/63/2 39/65/2 44/67/2
f 66/68/5 56/69/5 103/70/5 107/71/5
f 46/72/4 42/73/4 78/74/4 90/75/4
f 72/76/1 71/77/1 70/78/1 69/79/1
f 42/80/5 71/81/5 77/82/5 74/83/5
f 75/84/1 74/85/1 77/86/1 79/87/1
f 71/88/4 72/89/4 79/90/4 77/91/4
f 41/92/4 44/93/4 81/94/4 76/95/4
f 38/92/5 40/96/5 73/97/5 88/95/5
f 44/80/6 43/98/6 80/99/6 81/100/6
f 86/101/4 85/102/4 91/103/4 92/104/4
f 37/92/3 38/105/3 88/106/3 89/95/3
f 40/72/3 45/107/3 82/108/3 73/75/3
f 43/92/3 39/109/3 87/110/3 80/95/3
f 74/91/4 75/90/4 84/102/4 83/101/4
f 85/111/6 41/112/6 76/113/6 91/114/6
f 85/115/1 86/116/1 83/85/1 84/84/1
f 42/80/5 74/83/5 83/117/5 86/118/5
f 48/119/4 47/120/4 69/121/4 70/122/4
f 72/123/6 41/124/6 75/125/6 79/126/6
f 75/127/6 41/112/6 85/111/6 84/128/6
f 47/129/6 41/130/6 72/131/6 69/132/6
f 42/80/5 86/118/5 92/133/5 78/100/5
f 39/134/6 37/93/6 89/94/6 87/135/6
f 45/134/5 46/136/5 90/137/5 82/135/5
f 42/80/5 48/138/5 70/139/5 71/81/5
f 76/63/1 78/64/1 92/140/1 91/141/1
f 42/80/5 94/142/5 48/138/5
f 52/143/3 67/144/3 99/145/3 95/146/3
f 63/147/3 54/148/3 97/149/3 98/150/3
f 53/147/3 48/151/3 94/152/3 96/153/3
f 112/154/2 113/155/2 105/156/2
f 54/157/5 53/158/5 96/159/5 97/160/5
f 67/157/6 68/161/6 100/162/6 99/160/6
f 105/163/5 102/164/5 112/165/5
f 93/166/6 41/167/6 47/168/6
f 57/169/6 61/170/6 104/171/6 101/172/6
f 62/68/5 58/173/5 102/174/5 105/175/5
f 58/147/4 64/176/4 106/177/4 102/178/4
f 56/119/4 62/179/4 105/180/4 103/181/4
f 66/119/4 107/181/4 109/182/4 65/120/4
f 57/143/4 101/183/4 100/145/4 68/144/4
f 63/157/5 98/160/5 106/184/5 64/161/5
f 93/185/3 60/186/3 50/187/3
f 55/68/6 65/188/6 109/189/6 108/190/6
f 55/191/4 108/192/4 104/193/4 61/194/4
f 103/195/4 105/196/4 113/197/4
f 47/191/3 51/194/3 60/198/3 93/199/3
f 42/200/2 40/201/2 39/202/2
f 51/129/6 52/203/6 95/204/6 60/205/6
f 40/60/2 37/59/2 39/206/2
f 111/207/7 104/208/7 114/209/7
f 44/63/2 39/210/2 43/65/2
f 60/211/6 95/212/6 59/213/6
f 59/214/2 50/215/2 60/216/2
f 104/217/4 108/218/4 114/219/4
f 107/220/8 103/221/8 108/222/8 109/223/8
f 108/224/4 103/225/4 113/226/4 114/227/4
f 101/228/6 104/229/6 111/230/6
f 111/231/6 59/232/6 95/233/6 101/234/6
f 101/207/9 95/235/9 99/236/9 100/237/9
f 110/238/10 113/239/10 112/240/10
f 49/241/11 113/242/11 110/243/11
f 111/207/12 114/209/12 59/235/12
f 59/214/13 114/244/13 50/215/13
f 114/245/14 113/246/14 49/247/14
f 50/248/15 114/249/15 49/250/15
f 97/251/5 96/252/5 110/253/5
f 96/254/3 94/255/3 49/256/3
f 49/241/2 110/243/2 96/257/2
f 50/258/3 49/259/3 94/260/3 93/261/3
f 42/200/16 41/262/16 93/263/16 94/264/16
f 106/154/17 98/265/17 97/266/17 102/267/17
f 112/231/5 102/234/5 97/233/5 110/232/5
