# Blender v2.65 (sub 0) OBJ File: '6-20.blend'
# www.blender.org
mtllib 20.mtl
o Plane.001
v 0.017672 0.020523 -0.181721
v 0.028112 0.020523 -0.181721
v 0.017672 0.020523 -0.149999
v 0.028112 0.020523 -0.149999
v 0.017672 0.020523 -0.230433
v 0.028112 0.020523 -0.230433
v -0.050276 0.020523 -0.181721
v -0.050276 0.020523 -0.230433
v 0.000000 0.010000 -0.079999
v 0.009999 0.010000 -0.079999
v -0.030000 0.010000 -0.079999
v -0.030000 0.010000 -0.109999
v 0.039999 0.010000 -0.079999
v 0.039999 0.010000 -0.109999
v -0.030000 0.010000 -0.119999
v 0.039999 0.010000 -0.119999
v -0.030000 0.010000 -0.149999
v -0.050000 0.010000 -0.109999
v -0.050000 0.010000 -0.119999
v 0.039999 0.010000 -0.130279
v -0.014669 0.010000 -0.149999
v -0.014669 0.010000 -0.130210
vt 1.716838 5.758154
vt 0.150868 5.758154
vt 0.150868 0.999870
vt 1.716838 0.999870
vt 0.150868 0.758154
vt 1.716838 0.758154
vt 1.716838 8.064892
vt 0.150868 8.064892
vt -10.041365 8.064892
vt -10.041365 0.758154
vt 0.000000 0.999872
vt 0.000000 2.499872
vt -3.000000 2.499872
vt -3.000000 0.999872
vt 0.999876 0.499874
vt 5.499876 0.499874
vt 5.499876 4.999872
vt 4.500000 -3.500126
vt 10.499876 4.041904
vt 0.500000 0.499874
vt -4.000000 4.999872
vt -4.000000 0.499874
vt 0.000000 0.499872
vt 0.000000 -1.000128
vt 10.499876 2.041904
vt 2.299713 2.031530
vt 0.000000 4.999870
vt 0.299713 0.031530
vt 0.299714 2.999870
vt -2.000000 2.999870
vt -2.000000 -1.500128
vt 8.499876 0.041904
vt 5.499876 6.499872
vt 5.499876 8.041904
vt 1.999876 0.499874
vt 6.499876 8.041904
vn 0.000000 1.000000 0.000000
g Plane.001_Plane.001_None
usemtl None
s off
f 2/1/1 1/2/1 3/3/1 4/4/1
f 1/5/1 2/6/1 6/7/1 5/8/1
f 1/5/1 5/8/1 8/9/1 7/10/1
f 12/11/1 15/12/1 19/13/1 18/14/1
f 10/15/1 13/16/1 14/17/1
f 12/11/1 9/18/1 20/19/1
f 9/20/1 12/21/1 11/22/1
f 15/23/1 12/24/1 20/25/1
f 15/23/1 22/26/1 17/27/1
f 22/28/1 21/29/1 17/30/1
f 22/28/1 15/31/1 20/32/1
f 10/15/1 14/17/1 16/33/1 20/34/1
f 9/20/1 10/35/1 20/36/1
o Plane
v 0.039999 0.010000 -0.130279
v -0.014669 0.010000 -0.149999
v -0.014669 0.010000 -0.130210
v -0.007293 0.013469 -0.130210
v -0.007293 0.013469 -0.149999
v -0.014669 0.013469 -0.149999
v -0.014669 0.013469 -0.130210
v 0.000000 0.016939 -0.149999
v 0.000000 0.016939 -0.130279
v -0.007293 0.016939 -0.130210
v -0.007293 0.016939 -0.149999
v 0.000000 0.020508 -0.149999
v 0.039999 0.020508 -0.149999
v 0.000000 0.020508 -0.130279
v 0.039999 0.020508 -0.130279
v -0.030000 0.010000 -0.079999
v 0.039999 0.010000 -0.079999
v 0.039999 0.040047 -0.079999
v -0.030000 0.040047 -0.079999
v -0.030000 0.010000 -0.109999
v -0.030000 0.010000 -0.149999
v 0.039999 0.010000 -0.149999
v -0.030000 0.010000 -0.119999
v -0.030000 0.040047 -0.109999
v -0.050000 0.010000 -0.109999
v -0.050000 0.010000 -0.119999
v -0.030000 0.020642 -0.109999
v -0.050000 0.020642 -0.109999
v -0.050000 0.020642 -0.119999
v -0.030000 0.020643 -0.119999
v -0.030000 0.040048 -0.149999
v 0.039999 0.040048 -0.149999
v -0.030000 0.040048 -0.119999
v 0.017672 0.030676 -0.181721
v 0.017672 0.020523 -0.181721
v 0.028112 0.020523 -0.181721
v 0.017672 0.030676 -0.230433
v 0.028112 0.030676 -0.149999
v 0.017672 0.030676 -0.149999
v 0.017672 0.020523 -0.149999
v 0.028112 0.030676 -0.181721
v 0.028112 0.020523 -0.149999
v 0.017672 0.020523 -0.230433
v 0.028112 0.020523 -0.230433
v 0.028112 0.030676 -0.230433
v -0.050276 0.030676 -0.181721
v -0.050276 0.020523 -0.181721
v -0.050276 0.030676 -0.230433
v -0.050276 0.020523 -0.230433
v 0.017672 0.046298 -0.181721
v 0.017672 0.046298 -0.230433
v 0.028112 0.046298 -0.181721
v 0.028112 0.046298 -0.230433
v -0.050276 0.046298 -0.181721
v -0.050276 0.046298 -0.230433
vt 0.500000 0.040841
vt 6.499876 -1.000000
vt 6.499876 0.576130
vt 0.299713 0.000000
vt 8.499876 0.000000
vt 0.299713 0.520420
vt 0.299713 0.031530
vt 1.406032 0.031530
vt 1.406032 2.999870
vt 0.299714 2.999870
vt 0.999870 0.000000
vt -1.968470 0.000000
vt -1.968470 0.520420
vt 0.999870 0.520420
vt 0.406032 0.520420
vt 7.499876 0.000000
vt 0.406032 1.040841
vt 0.406032 0.031530
vt 1.500000 0.041904
vt 1.500000 2.999870
vt 0.406032 2.999870
vt -1.968470 1.040841
vt 0.999870 1.040841
vt 0.999870 0.040841
vt -1.958096 0.040841
vt -1.958096 0.576130
vt 0.999870 0.576130
vt 0.499876 0.000000
vt -5.500000 1.040841
vt -6.593968 1.040841
vt 0.500000 0.041904
vt 6.499876 0.041904
vt 6.499876 2.999870
vt 0.500000 2.999870
vt -6.593968 0.520420
vt -7.700287 0.520420
vt 0.500000 0.576130
vt 0.000000 0.000000
vt -3.000000 0.000000
vt -3.000000 1.596345
vt 0.000000 1.596345
vt 0.999872 0.000000
vt 2.499872 0.000000
vt 2.499872 1.596345
vt 0.999872 1.596345
vt 10.499876 0.000000
vt 0.000000 4.507232
vt 0.000000 1.596457
vt 0.000000 0.999870
vt 10.499876 0.999870
vt 10.499876 -9.500126
vt 0.000000 0.499874
vt 0.000000 10.999870
vt 10.499876 0.499874
vt 0.999872 0.507120
vt 6.999870 0.507232
vt -3.500126 0.507120
vt 0.499872 0.596457
vt 4.999870 3.507232
vt 0.499872 3.507232
vt 0.499872 0.507232
vt -1.000128 0.507120
vt -1.000128 -2.403655
vt 0.499872 -2.403543
vt 0.000000 0.499872
vt 0.000000 -1.000128
vt -3.000000 -1.000128
vt -3.000000 0.499872
vt 4.999870 0.507232
vt 0.499872 0.000000
vt 4.999870 0.000000
vt 4.999870 4.507232
vt 0.499872 1.596457
vt 0.499874 0.000000
vt 4.999872 0.000000
vt 4.999872 1.596345
vt 0.499874 4.507120
vt 0.000000 0.507120
vt 10.499876 0.507120
vt 10.499876 -4.000000
vt 0.000000 -4.000000
vt 0.499874 0.507120
vt 4.999872 -2.403655
vt 4.999872 0.507120
vt 0.999870 0.507232
vt 0.999870 -4.000000
vt -9.500126 -4.000000
vt -9.500126 0.507120
vt 0.000000 0.507232
vt 7.150868 -0.898579
vt 10.499876 0.507232
vt 0.499876 4.507232
vt -1.283162 3.101421
vt 0.499876 0.507232
vt -2.849132 -0.898579
vt -1.283162 -0.898579
vt -2.849132 1.578471
vt -10.000000 4.507232
vt 0.150868 0.578471
vt 0.150868 2.101421
vt -7.000000 3.507232
vt 3.499876 -1.000000
vt 1.716838 0.578471
vt -1.283162 1.578471
vt 0.716838 0.999870
vt -0.849132 0.999870
vt -0.849132 5.758154
vt 0.716838 5.758154
vt 0.999870 0.101421
vt 0.999870 -1.421529
vt 5.758154 -1.421529
vt 5.758154 0.101421
vt 0.999870 0.578471
vt 0.999870 2.101421
vt 5.758154 2.101421
vt 5.758154 0.578471
vt 0.716838 0.101421
vt -0.849132 0.101421
vt -0.849132 -1.421529
vt 0.716838 -1.421529
vt 0.758154 0.578471
vt 0.758154 2.101421
vt 8.064892 2.101421
vt 8.064892 0.578471
vt 0.064892 0.101421
vt -7.241846 0.101421
vt -7.241846 2.444715
vt 0.064892 2.444715
vt 0.150868 0.101421
vt -10.041365 0.101421
vt -10.041365 2.444715
vt 0.150868 2.444715
vt 0.758154 0.101421
vt 0.758154 -1.421529
vt 8.064892 -1.421529
vt 8.064892 0.101421
vt 0.150868 -1.421529
vt -10.041365 -1.421529
vt -10.041365 2.101421
vt -10.041365 0.578471
vt 0.716838 0.758154
vt -0.849132 0.758154
vt -0.849132 8.064892
vt 0.716838 8.064892
vt 0.150868 0.064892
vt 0.150868 -7.241846
vt -10.041365 -7.241846
vt -10.041365 0.064892
vt 1.716838 0.101421
vt 1.716838 2.444715
vt 8.064892 2.444715
vt 0.758154 2.444715
vt 0.958635 0.101421
vt 11.150868 0.101421
vt 11.150868 2.444715
vt 0.958635 2.444715
vt -0.849132 2.444715
vt 0.716838 2.444715
vt 0.716838 0.578471
vt 0.716838 2.101421
vt -0.849132 2.101421
vt -0.849132 0.578471
vn 0.000000 0.000000 1.000000
vn 0.001265 0.000000 0.999999
vn -1.000000 0.000000 -0.000000
vn 0.001462 0.000000 0.999999
vn 0.009468 0.054577 0.998465
vn 0.000000 -0.019929 0.999801
vn 0.000000 -0.000000 -1.000000
vn 1.000000 0.000000 0.000000
vn -0.000000 -1.000000 -0.000011
vn 0.000019 -1.000000 -0.000037
vn -0.000000 -1.000000 0.000000
g Plane_Plane_None_35.png
usemtl None_35.png
s off
f 31/37/2 23/38/2 37/39/2
f 25/40/3 23/41/3 29/42/3
f 29/43/1 26/44/1 27/45/1 28/46/1
f 24/47/4 25/48/4 29/49/4 28/50/4
f 26/51/5 23/52/5 32/53/5
f 32/54/1 31/55/1 30/56/1 33/57/1
f 27/50/4 26/49/4 32/58/4 33/59/4
f 30/60/4 31/61/4 36/62/4 34/63/4
f 23/64/6 31/65/6 32/66/6
f 36/67/1 37/68/1 35/69/1 34/70/1
f 23/64/7 26/71/7 29/72/7
f 36/73/2 31/37/2 37/39/2
f 42/74/8 47/75/8 50/76/8 49/77/8
f 47/78/9 48/79/9 51/80/9 50/81/9
f 43/74/2 44/82/2 53/83/2
f 45/74/2 52/84/2 51/76/2 48/75/2
f 53/85/10 54/86/10 40/87/10
f 41/88/10 53/89/10 40/90/10
f 46/91/9 53/92/9 41/93/9
f 52/94/9 53/95/9 55/96/9
f 55/97/9 46/98/9 49/99/9 52/100/9
f 52/101/11 49/102/11 50/103/11 51/104/11
f 55/97/4 53/105/4 46/98/4
f 45/106/9 43/107/9 53/108/9 52/109/9
f 38/110/9 42/111/9 49/112/9 41/113/9
f 41/114/8 40/115/8 39/116/8 38/117/8
f 41/118/9 49/119/9 46/120/9
f 54/121/4 44/122/4 39/123/4 40/124/4
f 53/125/2 61/126/2 54/127/2
f 44/64/2 54/128/2 60/129/2
f 54/130/2 61/131/2 60/132/2
f 44/64/2 62/133/2 53/134/2
f 62/135/2 61/136/2 53/137/2
f 62/135/2 44/138/2 64/139/2
f 44/64/2 60/129/2 64/140/2
f 60/141/12 61/142/12 56/143/12 63/144/12
f 61/145/9 62/146/9 57/147/9 56/148/9
f 64/149/4 60/150/4 63/151/4 58/152/4
f 60/153/2 61/154/2 62/155/2 64/156/2
f 58/157/4 63/158/4 67/159/4 66/160/4
f 67/161/4 63/162/4 74/163/4 75/164/4
f 56/165/8 68/166/8 76/167/8 72/168/8
f 68/169/9 69/170/9 71/171/9 70/172/9
f 56/165/8 57/173/8 69/174/8 68/166/8
f 65/135/2 59/136/2 70/175/2 71/176/2
f 74/177/12 72/178/12 73/179/12 75/180/12
f 73/181/12 72/182/12 76/183/12 77/184/12
f 59/165/2 67/185/2 75/186/2 73/168/2
f 68/169/9 70/172/9 77/187/9 76/188/9
f 70/189/2 59/190/2 73/191/2 77/192/2
f 63/153/8 56/154/8 72/193/8 74/194/8
f 66/195/2 67/196/2 59/197/2 65/198/2
