# Blender v2.65 (sub 0) OBJ File: '7-21.blend'
# www.blender.org
mtllib 21.mtl
o Plane.001_Plane.001_None
v 0.039999 0.010000 -0.050001
v -0.030001 0.010000 -0.050001
v -0.000001 0.010000 -0.180000
v 0.009999 0.010000 -0.180000
v 0.009999 0.010000 -0.200000
v -0.000001 0.010000 -0.200000
v 0.039999 0.010000 -0.140001
v 0.039999 0.010000 -0.150000
v 0.039999 0.010000 -0.180000
v -0.030001 0.010000 -0.150000
v -0.030001 0.010000 -0.140001
v -0.030001 0.010000 -0.180000
v 0.039999 0.010000 -0.110001
v 0.039999 0.010000 -0.120000
v -0.030001 0.010000 -0.120000
v -0.030001 0.010000 -0.110001
v 0.039999 0.010000 -0.080001
v 0.039999 0.010000 -0.090000
v -0.030001 0.010000 -0.090000
v -0.030001 0.010000 -0.080001
v 0.059999 0.010000 -0.140001
v 0.059999 0.010000 -0.150000
v 0.059999 0.010000 -0.110001
v 0.059999 0.010000 -0.120000
v 0.059999 0.010000 -0.080001
v 0.059999 0.010000 -0.090000
v -0.050001 0.010000 -0.150000
v -0.050001 0.010000 -0.140001
v -0.050001 0.010000 -0.120000
v -0.050001 0.010000 -0.110001
v -0.050001 0.010000 -0.090000
v -0.050001 0.010000 -0.080001
v 0.004909 0.010000 -0.114437
v -0.000001 0.010000 -0.050000
v 0.009999 0.010000 -0.050000
v -0.000001 0.010000 -0.030000
v 0.009999 0.010000 -0.030000
vt 0.000000 0.000151
vt 0.000000 -1.499849
vt -3.000000 -1.499849
vt -3.000000 0.000151
vt 0.000000 0.500151
vt 4.500000 -3.999849
vt 0.000000 -3.999849
vt 0.500000 0.500150
vt -4.000000 -3.999849
vt -4.000000 0.500150
vt 0.500000 0.000151
vt 1.999850 0.000151
vt 1.999850 -2.999847
vt 0.500000 -2.999847
vt 1.499850 0.000151
vt 1.499850 -2.999847
vt 0.000000 -2.999847
vt 0.999850 0.500150
vt -0.500000 0.500150
vt -0.500000 3.500150
vt 0.999850 3.500150
vt 0.499850 0.500150
vt -1.000000 0.500150
vt -1.000000 3.500150
vt 0.499850 3.500150
vt 0.000000 2.000151
vt 0.834462 0.263693
vt 1.499850 -4.999849
vt 0.000000 -4.999849
vt 0.000000 0.500150
vt 1.499850 0.500150
vt 0.834462 -4.736307
vt -3.000150 0.000151
vt 0.834462 5.263693
vt -3.000150 5.500150
vt 0.000000 5.500150
vt -3.000150 -4.999849
vt -4.500000 -4.999849
vt 0.499850 0.000151
vt -4.000150 0.000151
vt -9.165538 5.263693
vt 1.999850 0.500150
vt 5.834462 -4.736307
vt 5.999850 -4.999849
vt 4.500000 -4.999849
vt -3.165538 -4.736307
vt -2.500150 0.000151
vt -3.165538 5.263693
vt 1.499850 5.500150
vt 4.500000 5.500150
vt 5.499850 0.500150
vt -4.165538 -4.736307
vt 9.834462 -0.736307
vt 4.500000 -5.999849
vt 4.500000 4.500150
vt 10.499999 -0.499849
vt 10.499850 -4.999849
vt 0.499999 0.500151
vt -9.165538 1.263693
vt 0.499999 2.000151
vt 10.499850 5.500150
vt 10.499999 1.000151
vt 3.499998 2.000151
vt 3.499998 0.500151
vn -0.000000 1.000000 0.000000
g Plane.001_Plane.001_None_Plane.001_Plane.001_None_None
usemtl None
s off
f 3/1/1 4/2/1 5/3/1 6/4/1
f 4/5/1 8/6/1 9/7/1
f 10/8/1 3/9/1 12/10/1
f 8/11/1 7/12/1 21/13/1 22/14/1
f 14/1/1 13/15/1 23/16/1 24/17/1
f 18/11/1 17/12/1 25/13/1 26/14/1
f 11/18/1 10/19/1 27/20/1 28/21/1
f 16/22/1 15/23/1 29/24/1 30/25/1
f 20/18/1 19/19/1 31/20/1 32/21/1
f 4/5/1 3/26/1 8/6/1
f 33/27/1 13/28/1 14/29/1
f 15/30/1 16/31/1 33/32/1
f 14/1/1 7/33/1 33/34/1
f 33/27/1 11/35/1 15/36/1
f 33/27/1 7/37/1 8/38/1
f 1/39/1 17/40/1 33/41/1
f 10/8/1 11/42/1 33/43/1
f 33/27/1 17/44/1 18/45/1
f 19/8/1 20/42/1 33/46/1
f 18/11/1 13/47/1 33/48/1
f 33/27/1 16/49/1 19/50/1
f 20/18/1 2/51/1 33/52/1
f 3/1/1 33/53/1 8/54/1
f 3/1/1 10/55/1 33/53/1
f 35/56/1 1/57/1 33/27/1
f 35/58/1 33/59/1 34/60/1
f 33/27/1 2/61/1 34/62/1
f 35/58/1 34/60/1 36/63/1 37/64/1
o Plane_Plane_None_35.png
v -0.030001 0.010000 -0.150000
v -0.030001 0.010000 -0.140001
v -0.000001 0.010000 -0.180000
v -0.000001 0.010000 -0.200000
v -0.000001 0.020642 -0.200000
v -0.000001 0.020642 -0.180000
v 0.009999 0.010000 -0.200000
v 0.009999 0.020642 -0.200000
v 0.039999 0.010000 -0.180000
v 0.039999 0.010000 -0.050001
v 0.039999 0.040048 -0.050001
v 0.039999 0.040048 -0.180000
v 0.009999 0.010000 -0.180000
v 0.009999 0.020643 -0.180000
v -0.030001 0.040047 -0.050001
v -0.030001 0.040047 -0.180000
v -0.030001 0.010000 -0.180000
v -0.030001 0.010000 -0.050001
v 0.039999 0.020643 -0.110000
v 0.039999 0.020643 -0.150000
v 0.039999 0.020643 -0.140000
v 0.039999 0.020643 -0.080000
v -0.030001 0.020643 -0.110000
v -0.030001 0.020643 -0.120000
v -0.030001 0.020643 -0.140000
v -0.030001 0.020643 -0.150000
v -0.030001 0.010000 -0.120000
v -0.030001 0.010000 -0.110001
v -0.030001 0.010000 -0.090000
v -0.030001 0.010000 -0.080001
v -0.030001 0.020643 -0.080000
v -0.030001 0.020643 -0.090000
v 0.039999 0.010000 -0.090000
v 0.039999 0.010000 -0.080001
v 0.039999 0.020643 -0.090000
v 0.039999 0.010000 -0.120000
v 0.039999 0.010000 -0.110001
v 0.039999 0.020643 -0.120000
v 0.039999 0.010000 -0.150000
v 0.039999 0.010000 -0.140001
v 0.059999 0.020643 -0.150000
v 0.059999 0.020643 -0.140000
v 0.059999 0.010000 -0.150000
v 0.059999 0.010000 -0.140001
v 0.059999 0.020643 -0.120000
v 0.059999 0.020643 -0.110000
v 0.059999 0.010000 -0.120000
v 0.059999 0.010000 -0.110001
v 0.059999 0.020643 -0.090000
v 0.059999 0.020643 -0.080000
v 0.059999 0.010000 -0.090000
v 0.059999 0.010000 -0.080001
v -0.050001 0.020643 -0.090000
v -0.050001 0.020643 -0.080000
v -0.050001 0.010000 -0.090000
v -0.050001 0.010000 -0.080001
v -0.050001 0.020643 -0.120000
v -0.050001 0.020643 -0.110000
v -0.050001 0.010000 -0.120000
v -0.050001 0.010000 -0.110001
v -0.050001 0.020643 -0.150000
v -0.050001 0.020643 -0.140000
v -0.050001 0.010000 -0.150000
v -0.050001 0.010000 -0.140001
v -0.000001 0.020642 -0.050000
v 0.009999 0.020643 -0.050000
v -0.000001 0.020642 -0.030000
v 0.009999 0.020643 -0.030000
v -0.000001 0.010001 -0.030000
v 0.009999 0.010002 -0.030000
v -0.000001 0.010001 -0.050000
v 0.009999 0.010002 -0.050000
v -0.040001 0.040047 -0.050001
v -0.040001 0.040047 -0.180000
v 0.049999 0.040048 -0.050001
v 0.049999 0.040048 -0.180000
v 0.039999 0.040048 -0.190000
v -0.030001 0.040047 -0.190000
v -0.040001 0.040047 -0.190000
v 0.049999 0.040048 -0.190000
v 0.039999 0.040048 -0.040001
v -0.030001 0.040047 -0.040001
v -0.040001 0.040047 -0.040001
v 0.049999 0.040048 -0.040001
v -0.040001 0.070047 -0.050001
v -0.040001 0.070047 -0.180000
v 0.049999 0.070048 -0.050001
v 0.049999 0.070048 -0.180000
v 0.039999 0.070048 -0.190000
v -0.030001 0.070047 -0.190000
v -0.040001 0.070047 -0.190000
v 0.049999 0.070048 -0.190000
v 0.039999 0.070048 -0.040001
v -0.030001 0.070047 -0.040001
v -0.040001 0.070047 -0.040001
v 0.049999 0.070048 -0.040001
vt 0.000000 0.000000
vt -3.000000 0.000000
vt -3.000000 1.596300
vt 0.000000 1.596300
vt 0.003600 0.503750
vt -1.496400 0.503750
vt -1.496400 -1.092550
vt 0.003600 -1.092550
vt 0.000000 1.596450
vt 0.000000 0.000151
vt 19.499851 0.000151
vt 19.499851 10.500150
vt 0.000000 0.500150
vt 0.000000 -9.999849
vt 19.499851 0.500150
vt 0.000000 0.500151
vt 0.000000 2.000151
vt -3.000000 2.000151
vt -3.000000 0.500151
vt 0.503600 0.503750
vt -3.996400 0.503750
vt 0.503600 -1.092700
vt 0.503599 0.503750
vt -3.996400 -1.092550
vt 0.003600 -0.003450
vt 10.503599 -0.003299
vt 4.503600 2.907300
vt 0.003601 -4.003450
vt 4.503600 -1.092700
vt 0.503599 -0.003300
vt 0.503599 4.503750
vt -3.996400 2.907450
vt -5.496400 2.907300
vt 0.000000 0.507050
vt 4.500000 -2.403549
vt 0.000000 -4.000000
vt 6.000000 -2.403549
vt 0.000000 0.507200
vt 4.500000 -2.403551
vt 6.000000 -2.403551
vt 9.000000 -2.403549
vt 0.500000 0.596449
vt 0.499850 -1.000002
vt 3.500000 -1.000002
vt 3.500000 0.596449
vt 0.499850 0.507200
vt -4.000000 -2.403551
vt 0.499850 -4.000000
vt 0.000000 0.596449
vt -0.000150 -1.000002
vt 4.499850 -1.000000
vt 10.500000 -2.403549
vt 9.000000 -2.403551
vt 19.499851 0.507200
vt 1.500000 0.596449
vt 10.499850 3.507200
vt -3.000150 0.000000
vt -3.000000 1.596451
vt 0.000000 1.596451
vt 0.499850 0.000000
vt 0.500000 1.596451
vt 3.500000 1.596451
vt 3.500000 0.000000
vt 4.500000 -0.000002
vt 4.500000 1.596449
vt 0.999850 0.999998
vt 4.000000 0.999998
vt 4.000000 2.596449
vt 1.000000 2.596449
vt 4.499850 3.507200
vt -1.500000 0.596449
vt -8.500000 -2.403551
vt -5.500000 -2.403551
vt 0.500000 0.596451
vt 0.500000 -1.000000
vt -4.000000 -1.000000
vt 0.499850 0.507050
vt -5.500000 -2.403549
vt -8.500000 -2.403549
vt -19.000000 0.507050
vt -4.000000 -2.403549
vt 0.000000 0.596451
vt 4.499850 3.507050
vt 0.999850 0.000000
vt 1.000000 1.596451
vt 5.499850 0.000000
vt 3.503598 0.503750
vt 3.503600 -1.092701
vt 0.503600 -1.092701
vt 0.000000 3.500151
vt -1.500000 3.500151
vt -1.500000 0.500151
vt 0.503598 0.503750
vt -2.496401 0.503750
vt -2.496400 -1.092701
vt -0.000150 -1.000000
vt -1.500000 -1.000000
vt -1.500000 0.596451
vt -1.000000 0.000000
vt -1.000000 1.596451
vt 0.500000 0.500151
vt -1.000000 0.500151
vt -1.000000 -2.499849
vt 0.500000 -2.499849
vt 0.003599 -0.496248
vt -2.996402 -0.496248
vt -2.996397 -2.092699
vt 0.003601 -2.092699
vt 0.000000 0.000153
vt 0.000000 3.000151
vt -1.500000 3.000151
vt -1.500000 0.000153
vt 0.003600 -0.092699
vt -2.996398 -0.092699
vt -2.996402 1.503752
vt 0.003598 1.503752
vt -0.500000 2.596449
vt -0.500000 0.999998
vt 0.500000 0.000153
vt 0.500000 3.000151
vt -1.000000 3.000151
vt -1.000000 0.000153
vt 0.499850 0.999998
vt 0.500000 2.596449
vt -1.000000 2.596449
vt -1.000000 0.999998
vt 3.003598 -0.496248
vt 3.003601 -2.092699
vt 0.003603 -2.092699
vt 0.000095 0.000151
vt 1.596300 0.000151
vt 1.596450 -1.499849
vt 0.000245 -1.499849
vt 0.499998 0.596450
vt -2.500001 0.596450
vt -2.500001 -0.999755
vt 0.499998 -0.999755
vt 0.499998 0.000095
vt -2.500001 0.000095
vt -2.500001 1.596300
vt 0.499998 1.596300
vt 0.499998 0.000151
vt -2.500001 0.000151
vt -2.500001 -1.499849
vt 0.499998 -1.499849
vt 4.503600 0.503505
vt 0.003600 4.503750
vt 0.003600 -0.092550
vt 4.503600 -3.003300
vt -1.496400 -0.092700
vt -9.996399 -0.003450
vt 0.003600 1.503655
vt 4.503599 1.503750
vt 0.499850 0.500150
vt -19.000000 0.500150
vt -19.000000 2.000150
vt 0.499850 2.000150
vt 19.499851 -1.499849
vt 0.000000 -1.499849
vt 0.000000 0.000150
vt 0.000000 -1.499850
vt -1.500000 -1.499850
vt -1.500000 0.000150
vt -1.500000 -1.499849
vt -1.500000 0.000151
vt -1.500000 -9.999849
vt -1.500000 0.500150
vt 0.499850 0.000151
vt 0.499850 10.500150
vt 1.999849 10.500150
vt 1.999849 0.000151
vt 1.999849 2.000150
vt 1.999849 0.500150
vt 0.499850 0.500151
vt 0.499850 2.000151
vt 1.999849 2.000151
vt 1.999849 0.500151
vt -1.500000 0.507050
vt -1.500000 5.007050
vt 0.000000 5.007050
vt 0.500000 0.507200
vt 2.000000 0.507200
vt 2.000000 5.007199
vt 0.500000 5.007199
vt 0.999849 0.507050
vt -0.500150 0.507050
vt -0.500150 5.007050
vt 0.999849 5.007050
vt 3.007124 2.500225
vt -7.492875 2.500074
vt -7.492875 -1.999925
vt 3.007123 -1.999775
vt -19.000000 5.007050
vt 0.499850 5.007050
vt 1.999849 0.507200
vt 1.999849 5.007199
vt 0.499850 5.007199
vt 2.507125 2.500075
vt 13.007124 2.500226
vt 13.007123 -1.999774
vt 2.507125 -1.999924
vt 2.507124 2.500225
vt 1.007124 2.500225
vt 1.007123 -1.999775
vt 2.507123 -1.999775
vt 4.507124 2.500225
vt 4.507123 -1.999774
vt 1.007125 2.500075
vt 1.007125 -1.999925
vt 3.007125 2.500075
vt 4.507125 2.500075
vt 4.507125 -1.999924
vt 3.007125 -1.999924
vt 19.499851 5.007199
vt 0.000000 5.007199
vt 0.999849 0.000149
vt -0.500150 0.000149
vt 0.999849 -1.499851
vt 0.000000 0.000149
vt -1.500000 0.000149
vt -1.500000 -1.499851
vt -1.500000 2.000151
vt 0.999849 0.000151
vt -0.500150 -1.499849
vt 0.999849 -1.499849
vt -1.500000 -11.999849
vt 0.499850 0.000149
vt -19.000000 0.000149
vt -20.500000 -11.999849
vt 0.999849 0.500149
vt -0.500150 2.000149
vt 0.999849 -9.999849
vt 1.999849 -11.999849
vt 0.500000 0.000151
vt 2.000000 -1.499849
vt 21.499851 -1.499849
vt -21.500000 0.000151
vn 1.000000 0.000000 0.000000
vn 0.000000 0.000000 1.000000
vn -1.000000 0.000000 0.000000
vn 0.000014 -1.000000 -0.000000
vn 0.000050 -1.000000 0.000025
vn 0.000001 0.000002 1.000000
vn -1.000000 -0.000001 -0.000000
vn 1.000000 0.000001 0.000000
vn -0.000000 0.000094 -1.000000
vn 0.000000 -1.000000 0.000000
vn 1.000000 0.000002 0.000000
vn -0.000000 0.000000 -1.000000
vn 0.000100 -1.000000 0.000000
vn -0.000033 -0.000000 -1.000000
vn 0.000000 -0.000051 -1.000000
vn 0.000033 0.000000 -1.000000
vn -0.000014 1.000000 0.000000
vn 0.000014 -1.000000 0.000014
vn 0.000013 -1.000000 -0.000000
vn 0.000014 -1.000000 -0.000014
g Plane_Plane_None_35.png_Plane_Plane_None_35.png_None_35.png
usemtl None_35.png
s off
f 40/65/2 41/66/2 42/67/2 43/68/2
f 41/69/3 44/70/3 45/71/3 42/72/3
f 50/65/4 51/73/4 45/67/4 44/66/4
f 49/74/5 48/75/5 52/76/5
f 53/77/5 49/78/5 52/79/5
f 51/80/6 43/81/6 42/82/6 45/83/6
f 50/84/3 46/85/3 51/86/3
f 54/87/3 40/85/3 43/88/3
f 49/89/3 53/90/3 51/91/3
f 46/69/3 49/92/3 51/93/3
f 53/94/3 54/95/3 43/96/3
f 53/94/7 43/96/7 51/97/7
f 53/98/2 63/99/2 54/100/2
f 53/98/2 62/101/2 63/99/2
f 49/102/8 57/103/8 58/104/8
f 53/98/2 61/105/2 62/101/2
f 56/106/8 74/107/8 70/108/8 72/109/8
f 48/110/4 59/111/4 47/112/4
f 59/113/8 71/114/8 47/115/8
f 53/98/2 60/116/2 61/105/2
f 49/102/4 75/117/4 48/118/4
f 75/113/4 56/119/4 48/120/4
f 64/65/9 39/121/9 62/122/9 61/123/9
f 65/124/9 60/125/9 69/126/9 66/127/9
f 46/65/8 76/128/8 57/129/8
f 49/102/4 46/100/4 57/103/4
f 77/130/8 73/131/8 75/132/8 58/133/8
f 49/102/8 58/104/8 75/117/8
f 59/113/4 48/134/4 72/135/4
f 48/110/4 56/136/4 72/137/4
f 63/138/9 38/139/9 54/140/9
f 52/141/2 69/142/2 60/143/2
f 52/141/2 60/143/2 53/144/2
f 52/141/2 68/145/2 69/142/2
f 68/146/2 52/147/2 55/115/2
f 67/148/9 68/149/9 55/150/9
f 39/87/10 101/151/10 99/152/10 62/153/10
f 62/80/11 99/154/11 98/155/11 63/156/11
f 100/157/3 38/158/3 63/159/3 98/153/3
f 99/146/12 101/160/12 100/161/12 98/162/12
f 97/124/9 96/163/9 94/164/9 95/125/9
f 95/165/11 94/166/11 61/167/11 60/168/11
f 96/157/3 64/158/3 61/159/3 94/153/3
f 65/87/10 97/151/10 95/152/10 60/153/10
f 92/157/3 66/158/3 69/159/3 90/153/3
f 68/80/11 91/154/11 90/155/11 69/156/11
f 91/146/12 93/160/12 92/161/12 90/162/12
f 67/87/10 93/151/10 91/152/10 68/153/10
f 70/169/3 88/170/3 86/171/3 72/172/3
f 87/173/11 59/174/11 72/175/11 86/176/11
f 59/177/10 87/178/10 89/179/10 71/180/10
f 89/130/8 87/133/8 86/181/8 88/182/8
f 73/169/3 84/170/3 82/171/3 75/172/3
f 83/183/11 56/184/11 75/185/11 82/186/11
f 56/177/10 83/178/10 85/179/10 74/180/10
f 85/187/8 83/188/8 82/189/8 84/190/8
f 76/169/3 80/170/3 78/171/3 57/172/3
f 79/173/11 58/174/11 57/175/11 78/176/11
f 81/169/10 77/191/10 58/192/10 79/193/10
f 81/130/8 79/133/8 78/181/8 80/182/8
f 106/194/13 104/195/13 105/196/13 107/197/13
f 105/198/4 103/199/4 109/200/4 107/201/4
f 106/202/2 108/203/2 102/204/2 104/205/2
f 104/206/14 102/207/14 103/208/14 105/209/14
f 47/69/15 109/210/15 103/93/15
f 48/89/15 47/211/15 103/91/15
f 102/212/16 52/213/16 103/214/16
f 52/94/16 48/215/16 103/97/16
f 52/94/17 102/96/17 55/95/17
f 102/212/17 108/216/17 55/217/17
f 52/218/1 53/219/1 111/220/1 110/221/1
f 49/74/1 48/75/1 112/222/1 113/223/1
f 111/224/1 53/225/1 115/226/1 116/227/1
f 49/74/1 113/223/1 117/228/1 114/229/1
f 53/77/18 49/78/18 114/230/18 115/231/18
f 48/232/18 52/233/18 119/234/18 118/235/18
f 52/218/1 110/221/1 120/236/1 119/237/1
f 112/238/1 48/239/1 118/240/1 121/241/1
f 111/98/2 116/242/2 128/243/2 123/244/2
f 117/245/4 113/246/4 125/247/4 129/248/4
f 120/249/2 110/250/2 122/251/2 132/252/2
f 115/253/3 114/254/3 126/255/3 127/256/3
f 110/141/2 111/144/2 123/257/2 122/258/2
f 112/110/4 121/259/4 133/260/4 124/261/4
f 118/262/13 119/263/13 131/264/13 130/265/13
f 116/266/3 115/267/3 127/268/3 128/269/3
f 119/253/13 120/270/13 132/271/13 131/256/13
f 114/262/3 117/272/3 129/273/3 126/265/3
f 121/274/13 118/275/13 130/276/13 133/277/13
f 113/102/4 112/118/4 124/278/4 125/279/4
f 132/280/11 122/281/11 131/282/11
f 123/283/11 128/284/11 127/285/11
f 125/80/11 126/286/11 129/156/11
f 130/287/11 124/288/11 133/289/11
f 123/283/19 127/285/19 126/290/19
f 122/291/20 123/292/20 126/293/20
f 131/294/21 122/295/21 130/296/21
f 122/291/20 126/293/20 130/297/20
f 126/298/11 125/299/11 124/300/11
f 130/287/11 126/301/11 124/288/11
