# Blender v2.65 (sub 0) OBJ File: '8-22.blend'
# www.blender.org
mtllib 22.mtl
o Plane.001
v 0.000000 0.010000 -0.079999
v 0.009999 0.010000 -0.079999
v 0.000000 0.010000 -0.059999
v 0.009999 0.010000 -0.059999
v -0.030000 0.010000 -0.079999
v -0.030000 0.010000 -0.109999
v 0.039999 0.010000 -0.079999
v 0.039999 0.010000 -0.109999
v 0.000000 0.010000 -0.149999
v 0.009999 0.010000 -0.149999
v -0.030000 0.010000 -0.119999
v 0.039999 0.010000 -0.119999
v -0.030000 0.010000 -0.149999
v 0.039999 0.010000 -0.149999
v 0.059999 0.010000 -0.109999
v 0.059999 0.010000 -0.119999
v 0.000000 0.010000 -0.169999
v 0.009999 0.010000 -0.169999
vt 1.999876 3.499874
vt 0.500000 3.499874
vt 0.500000 0.499875
vt 1.999876 0.499875
vt 0.500000 0.999870
vt 1.999876 0.999870
vt 1.999876 3.999870
vt 0.500000 3.999870
vt 0.499876 0.499872
vt 0.499876 -1.000128
vt 3.499876 -1.000128
vt 3.499876 0.499872
vt 0.999876 0.999870
vt 5.499876 -3.500128
vt 5.499876 0.999870
vt 0.000000 0.499872
vt 4.500000 4.999870
vt 0.000000 4.999870
vt 0.500000 0.499874
vt 1.999876 0.499874
vt 1.999876 10.999870
vt 0.500000 10.999870
vt 0.999876 0.499874
vt 5.499876 4.999872
vt 5.499876 6.499872
vt 0.999876 10.999870
vt 5.499876 0.499874
vt 0.000000 0.999872
vt 4.500000 -3.500126
vt 4.500000 6.999870
vt 0.000000 2.499872
vt -4.000000 4.999872
vt -4.000000 0.499874
vn 0.000000 1.000000 0.000000
g Plane.001_Plane.001_None
usemtl None
s off
f 2/1/1 1/2/1 3/3/1 4/4/1
f 9/5/1 10/6/1 18/7/1 17/8/1
f 12/9/1 8/10/1 15/11/1 16/12/1
f 10/13/1 12/14/1 14/15/1
f 11/16/1 9/17/1 13/18/1
f 1/19/1 2/20/1 10/21/1 9/22/1
f 2/23/1 8/24/1 12/25/1 10/26/1
f 2/23/1 7/27/1 8/24/1
f 6/28/1 1/29/1 9/30/1 11/31/1
f 1/19/1 6/32/1 5/33/1
o Plane
v 0.000000 0.010000 -0.079999
v 0.009999 0.010000 -0.079999
v 0.009999 0.040047 -0.079999
v 0.000000 0.040047 -0.079999
v -0.030000 0.010000 -0.079999
v -0.030000 0.010000 -0.109999
v 0.039999 0.010000 -0.079999
v 0.039999 0.010000 -0.109999
v 0.000000 0.010000 -0.149999
v 0.009999 0.010000 -0.149999
v -0.030000 0.010000 -0.119999
v 0.039999 0.010000 -0.119999
v -0.030000 0.040047 -0.109999
v -0.030000 0.040047 -0.079999
v -0.030000 0.010000 -0.149999
v 0.039999 0.010000 -0.149999
v 0.059999 0.010000 -0.109999
v 0.059999 0.010000 -0.119999
v 0.000000 0.010000 -0.169999
v 0.009999 0.010000 -0.169999
v 0.000000 0.020642 -0.079999
v 0.009999 0.020642 -0.079999
v 0.039999 0.040047 -0.079999
v 0.039999 0.020642 -0.109999
v 0.059999 0.020642 -0.109999
v 0.039999 0.020643 -0.119999
v 0.009999 0.020643 -0.149999
v -0.030000 0.040048 -0.149999
v 0.039999 0.040048 -0.149999
v 0.059999 0.020643 -0.119999
v 0.009999 0.020643 -0.169999
v 0.000000 0.020665 -0.149999
v 0.000000 0.020665 -0.169999
v 0.039999 0.040047 -0.109999
v -0.030000 0.040048 -0.119999
v 0.039999 0.040048 -0.119999
v 0.009999 0.040048 -0.149999
v 0.000000 0.040070 -0.149999
v 0.000000 0.010000 -0.059999
v 0.009999 0.010000 -0.059999
v 0.000000 0.020642 -0.059999
v 0.009999 0.020642 -0.059999
vt 0.999870 0.000000
vt -2.000130 0.000000
vt -2.000130 1.596457
vt 0.999870 1.596457
vt 0.499876 0.000000
vt -2.500124 0.000000
vt -2.500124 1.596345
vt 0.499876 1.596345
vt -4.000124 0.000000
vt -4.000124 1.596345
vt 0.499876 4.507120
vt 0.499876 0.499872
vt -4.000124 4.999870
vt 0.499876 4.999870
vt 0.999872 0.000000
vt -3.500126 0.000000
vt -3.500126 4.507120
vt 0.999872 1.596345
vt 0.999870 0.507232
vt -3.500128 -2.403543
vt -3.500128 0.507232
vt -3.500128 0.000000
vt -3.500128 1.596457
vt 0.999870 4.507232
vt 3.499876 0.000000
vt 3.499876 1.596457
vt 0.499876 1.596457
vt 0.999876 0.000000
vt 5.499876 0.000000
vt 5.499876 4.507232
vt 0.999876 1.596457
vt -0.500000 1.599687
vt -0.500000 0.000000
vt 0.499874 0.000000
vt 4.999872 0.000000
vt 0.499874 4.507120
vt 2.499872 1.596457
vt 2.499872 0.000000
vt 0.500000 0.596345
vt -4.000000 3.507120
vt 0.500000 3.507120
vt 3.999870 0.000000
vt 3.999870 1.599687
vt 0.999870 1.599687
vt 0.500000 0.000000
vt 0.500000 1.599687
vt -4.000000 4.507232
vt -4.000000 0.000000
vt 0.999876 0.596457
vt 5.499876 3.507232
vt 0.999876 3.507232
vt -4.000000 4.507120
vt 0.500000 1.596345
vt 0.499872 0.000000
vt 4.999870 4.507232
vt 0.499872 4.507232
vt 0.000000 0.499872
vt 0.000000 4.999870
vt 4.500000 4.999870
vt 4.999870 0.000000
vt 0.000000 0.999872
vt 4.500000 -3.500126
vt 0.000000 -3.500126
vt 0.000000 0.507232
vt 4.500000 -2.400313
vt 4.500000 0.510462
vt 0.999876 0.999870
vt 0.999876 -2.000130
vt -0.500000 -2.000130
vt -0.500000 0.999870
vt 0.500000 0.599687
vt 1.999876 0.596457
vt 1.999876 3.507232
vt 0.500000 3.510462
vt 0.499872 0.507232
vt -1.000128 0.507120
vt -1.000128 -4.000000
vt 0.499872 -4.000000
vt 0.499874 0.507120
vt 4.999872 -4.000000
vt 4.999872 0.507120
vt 0.499876 0.999872
vt -4.000124 6.999870
vt 0.499876 2.499872
vt 0.999876 0.499874
vt 0.999876 10.999870
vt 5.499876 4.999872
vt 0.000000 -1.000128
vt 4.500000 6.999870
vt 0.500000 0.999870
vt 1.999876 0.999870
vt 1.999876 -9.500126
vt 0.500000 0.499874
vt 0.500000 10.999870
vt 1.999876 0.499874
vt 0.999872 0.596345
vt -3.500126 3.507120
vt 0.999872 3.507120
vt 0.499876 0.507120
vt -4.000124 -2.403655
vt -4.000124 0.507120
vt 5.499876 0.499874
vt 0.500000 0.507120
vt 1.999876 0.507120
vt 1.999876 -2.403655
vt 0.500000 -2.403655
vt 0.499876 -1.000128
vt -2.500124 -1.000128
vt -2.500124 0.499872
vt 0.499872 -2.403543
vt -1.000128 -2.403655
vt 1.999876 -2.500125
vt 0.500000 -2.500125
vt 0.499874 1.596345
vt -2.500125 1.596345
vt -2.500125 0.000000
vt 0.499874 0.596345
vt 0.499874 -1.000000
vt -2.500125 -1.000000
vt -2.500125 0.596345
vt -0.500000 1.596345
vt 0.999876 1.596345
vn -1.000000 -0.000000 0.000000
vn 0.000000 -0.000000 -1.000000
vn 0.000000 -1.000000 0.000000
vn 0.000000 0.000000 1.000000
vn 1.000000 0.000000 -0.000000
vn 0.000718 -1.000000 0.000000
vn -0.002153 -0.999998 0.000000
vn 0.000075 -1.000000 -0.000075
vn -0.000011 -1.000000 -0.000011
vn 0.000643 -1.000000 -0.000075
vn 0.000318 -1.000000 -0.000318
vn -0.002153 -0.999998 -0.000011
vn 0.000000 -1.000000 -0.000318
vn 0.000000 -1.000000 -0.000075
g Plane_Plane_None_35.png
usemtl None_35.png
s off
f 38/34/2 28/35/2 45/36/2 49/37/2
f 35/38/3 26/39/3 42/40/3 43/41/3
f 25/38/3 20/42/3 40/43/3 41/44/3
f 54/45/4 55/46/4 47/47/4
f 26/48/2 25/49/2 41/50/2 42/51/2
f 47/52/2 44/53/2 54/54/2
f 34/34/2 30/55/2 44/56/2 47/57/2
f 30/38/5 36/58/5 48/59/5 44/60/5
f 28/61/5 34/62/5 47/63/5 45/64/5
f 38/61/5 49/64/5 51/65/5 37/66/5
f 23/67/6 24/68/6 32/69/6
f 35/48/2 43/51/2 48/70/2 36/71/2
f 39/72/3 32/73/3 22/74/3
f 27/34/6 37/75/6 51/76/6 50/77/6
f 27/78/5 50/79/5 46/80/5 33/81/5
f 45/82/5 47/83/5 55/84/5
f 19/78/3 23/81/3 32/85/3 39/86/3
f 29/87/6 46/88/6 53/89/6
f 53/90/7 46/91/7 56/92/7
f 29/87/6 33/93/6 46/88/6
f 31/94/4 22/95/4 32/96/4
f 46/97/5 50/98/5 56/99/5
f 49/100/8 45/101/8 50/102/8 51/103/8
f 50/104/5 45/105/5 55/106/5 56/107/5
f 53/108/6 31/109/6 24/110/6 29/111/6
f 32/112/6 24/113/6 31/114/6
f 52/115/9 55/116/9 54/117/9
f 21/118/10 55/119/10 52/120/10
f 53/90/11 56/92/11 31/121/11
f 31/94/12 56/122/12 22/95/12
f 56/123/13 55/124/13 21/125/13
f 22/126/14 56/127/14 21/128/14
f 42/129/2 41/130/2 52/131/2
f 41/132/3 40/133/3 21/134/3
f 21/118/4 52/120/4 41/135/4
f 22/136/3 21/137/3 40/138/3 39/139/3
f 48/45/15 43/140/15 42/141/15 44/142/15
f 54/108/2 44/143/2 42/144/2 52/109/2
f 39/126/4 40/128/4 60/145/4 59/146/4
f 19/67/6 39/147/6 59/148/6 57/149/6
f 40/150/2 20/151/2 58/152/2 60/153/2
f 58/61/3 57/66/3 59/154/3 60/155/3
