# Blender v2.65 (sub 0) OBJ File: '4-18.blend'
# www.blender.org
mtllib 30.mtl
o Plane.001
v 0.000000 0.010000 -0.079999
v 0.009999 0.010000 -0.079999
v -0.030000 0.010000 -0.079999
v -0.030000 0.010000 -0.109999
v 0.039999 0.010000 -0.079999
v 0.039999 0.010000 -0.109999
v 0.000000 0.010000 -0.149999
v 0.009999 0.010000 -0.149999
v -0.030000 0.010000 -0.119999
v 0.039999 0.010000 -0.119999
v -0.030000 0.010000 -0.149999
v 0.039999 0.010000 -0.149999
v -0.050000 0.010000 -0.109999
v -0.050000 0.010000 -0.119999
vt 0.000000 0.999872
vt 0.000000 2.499872
vt -3.000000 2.499872
vt -3.000000 0.999872
vt 0.999876 0.999870
vt 5.499876 -3.500128
vt 5.499876 0.999870
vt 0.000000 0.499872
vt 4.500000 4.999870
vt 0.000000 4.999870
vt 0.500000 0.499874
vt 1.999876 0.499874
vt 1.999876 10.999870
vt 0.500000 10.999870
vt 0.999876 0.499874
vt 5.499876 4.999872
vt 5.499876 6.499872
vt 0.999876 10.999870
vt 5.499876 0.499874
vt 4.500000 -3.500126
vt 4.500000 6.999870
vt -4.000000 4.999872
vt -4.000000 0.499874
vn -0.000000 1.000000 0.000000
g Plane.001_Plane.001_None
usemtl None
s off
f 4/1/1 9/2/1 14/3/1 13/4/1
f 8/5/1 10/6/1 12/7/1
f 9/8/1 7/9/1 11/10/1
f 1/11/1 2/12/1 8/13/1 7/14/1
f 2/15/1 6/16/1 10/17/1 8/18/1
f 2/15/1 5/19/1 6/16/1
f 4/1/1 1/20/1 7/21/1 9/2/1
f 1/11/1 4/22/1 3/23/1
o Plane
v -0.030000 0.010000 -0.079999
v 0.039999 0.010000 -0.079999
v 0.039999 0.040047 -0.079999
v -0.030000 0.040047 -0.079999
v -0.030000 0.010000 -0.109999
v -0.030000 0.010000 -0.149999
v 0.039999 0.010000 -0.149999
v -0.030000 0.010000 -0.119999
v -0.030000 0.040047 -0.109999
v -0.050000 0.010000 -0.109999
v -0.050000 0.010000 -0.119999
v -0.030000 0.020642 -0.109999
v -0.050000 0.020642 -0.109999
v -0.050000 0.020642 -0.119999
v -0.030000 0.020643 -0.119999
v -0.030000 0.040048 -0.149999
v 0.039999 0.040048 -0.149999
v -0.030000 0.040048 -0.119999
vt 0.000000 0.000000
vt -3.000000 0.000000
vt -3.000000 1.596345
vt 0.000000 1.596345
vt 0.999872 0.000000
vt 2.499872 0.000000
vt 2.499872 1.596345
vt 0.999872 1.596345
vt 10.499876 0.000000
vt 10.499876 4.507232
vt 0.000000 4.507232
vt 0.000000 1.596457
vt 0.000000 0.999870
vt 10.499876 0.999870
vt 10.499876 -9.500126
vt 0.000000 0.499874
vt 0.000000 10.999870
vt 10.499876 0.499874
vt 0.999872 0.507120
vt 6.999870 0.507232
vt -3.500126 0.507120
vt 0.499872 0.596457
vt 4.999870 3.507232
vt 0.499872 3.507232
vt 0.499872 0.507232
vt -1.000128 0.507120
vt -1.000128 -2.403655
vt 0.499872 -2.403543
vt 0.000000 0.499872
vt 0.000000 -1.000128
vt -3.000000 -1.000128
vt -3.000000 0.499872
vt 4.999870 0.507232
vt 0.499872 0.000000
vt 4.999870 0.000000
vt 4.999870 4.507232
vt 0.499872 1.596457
vt 0.499874 0.000000
vt 4.999872 0.000000
vt 4.999872 1.596345
vt 0.499874 4.507120
vt 10.499876 -4.000000
vt 0.000000 -4.000000
vt 0.000000 0.507120
vt 10.499876 0.507120
vt 0.499874 0.507120
vt 4.999872 -2.403655
vt 4.999872 0.507120
vt 0.999870 0.507232
vt 0.999870 -4.000000
vt -9.500126 -4.000000
vt -9.500126 0.507120
vn 0.000000 -0.000000 -1.000000
vn 1.000000 0.000000 0.000000
vn 0.000000 0.000000 1.000000
vn -0.000000 -1.000000 -0.000011
vn 0.000019 -1.000000 -0.000037
vn -1.000000 0.000000 0.000000
g Plane_Plane_None_35.png
usemtl None_35.png
s off
f 19/24/2 24/25/2 27/26/2 26/27/2
f 24/28/3 25/29/3 28/30/3 27/31/3
f 20/24/4 21/32/4 31/33/4 30/34/4
f 22/24/4 29/35/4 28/26/4 25/25/4
f 30/36/5 31/37/5 17/38/5
f 18/39/5 30/40/5 17/41/5
f 23/42/3 30/43/3 18/44/3
f 29/45/3 30/46/3 32/47/3
f 32/48/3 23/49/3 26/50/3 29/51/3
f 29/52/6 26/53/6 27/54/6 28/55/6
f 32/48/7 30/56/7 23/49/7
f 22/57/3 20/58/3 30/59/3 29/60/3
f 15/61/3 19/62/3 26/63/3 18/64/3
f 16/65/2 15/66/2 18/67/2 17/68/2
f 18/69/3 26/70/3 23/71/3
f 31/72/7 21/73/7 16/74/7 17/75/7
