# Blender v2.65 (sub 0) OBJ File: '18-32.blend'
# www.blender.org
mtllib 32.mtl
o Plane.002_Plane.009
v -0.006954 0.010000 -0.083080
v 0.063195 0.010000 -0.083113
v 0.063210 0.010000 -0.053113
v 0.063214 0.010000 -0.043113
v 0.063229 0.010000 -0.013113
v 0.083210 0.010000 -0.053123
v 0.083214 0.010000 -0.043123
v -0.006848 0.010000 -0.013080
v -0.074710 0.010000 -0.083048
v -0.074605 0.010000 -0.013048
v -0.006984 0.010000 -0.147878
v -0.074741 0.010000 -0.147846
v -0.036949 0.010000 -0.147864
v -0.047189 0.010000 -0.147859
v -0.047197 0.010000 -0.163269
v -0.036957 0.010000 -0.163274
vt 0.000000 0.999872
vt 0.000000 2.499872
vt -3.000000 2.499872
vt -3.000000 0.999872
vt 0.017097 0.468661
vt 1.553104 0.468661
vt 1.553104 2.780200
vt 0.017097 2.780200
vt 0.685837 0.499874
vt 0.674986 10.999870
vt -9.488509 10.999870
vt 0.522339 0.499874
vt 0.522339 -9.219801
vt 5.017097 -9.219801
vt 0.000000 0.499872
vt 10.511491 4.999870
vt 0.000000 4.999870
vt 20.685837 -5.500126
vt 0.000000 0.499874
vt 10.522339 0.499874
vt 0.000000 4.999872
vt 0.553104 0.780200
vt 4.685837 0.780200
vt 4.685837 10.499874
vt 0.017097 0.780200
vt 1.553104 0.780200
vt 5.685837 10.499874
vt 10.685837 0.499874
vt 20.685837 -3.500126
vt -10.000000 4.999872
vn 0.000000 1.000000 0.000000
g Plane.002_Plane.009_None
usemtl None
s off
f 3/1/1 4/2/1 7/3/1 6/4/1
f 16/5/1 15/6/1 14/7/1 13/8/1
f 9/9/1 10/10/1 8/11/1
f 1/12/1 11/13/1 13/14/1
f 4/15/1 8/16/1 5/17/1
f 4/15/1 9/18/1 8/16/1
f 2/19/1 1/20/1 3/21/1
f 14/22/1 12/23/1 9/24/1
f 13/25/1 14/26/1 9/27/1
f 1/12/1 13/14/1 9/28/1
f 3/1/1 9/29/1 4/2/1
f 1/12/1 9/28/1 3/30/1
o Plane.001
v -0.006954 0.010000 -0.083080
v 0.063195 0.010000 -0.083113
v 0.063210 0.010000 -0.053113
v 0.063214 0.010000 -0.043113
v 0.063229 0.010000 -0.013113
v -0.006848 0.010000 -0.013080
v -0.074710 0.010000 -0.083048
v -0.074605 0.010000 -0.013048
v -0.006984 0.010000 -0.147878
v -0.074741 0.010000 -0.147846
v -0.036949 0.010000 -0.147864
v -0.047189 0.010000 -0.147859
v -0.047197 0.010000 -0.163269
v -0.036957 0.010000 -0.163274
v -0.006954 0.020479 -0.083080
v 0.063195 0.020479 -0.083113
v 0.063210 0.020479 -0.053113
v 0.063214 0.020643 -0.043113
v 0.063229 0.020479 -0.013113
v -0.006848 0.020479 -0.013080
v -0.074710 0.020479 -0.083048
v -0.074605 0.020479 -0.013048
v -0.006984 0.020479 -0.147878
v -0.074741 0.020479 -0.147846
v -0.036949 0.020479 -0.147864
v -0.047189 0.020479 -0.147859
v -0.047197 0.020479 -0.163269
v -0.036957 0.020479 -0.163274
v -0.006954 0.050302 -0.083080
v 0.063195 0.050302 -0.083113
v 0.063210 0.050302 -0.053113
v 0.063214 0.050302 -0.043113
v 0.063229 0.050302 -0.013113
v -0.006848 0.050302 -0.013080
v -0.074710 0.050302 -0.083048
v -0.074605 0.050302 -0.013048
v -0.006984 0.050302 -0.147878
v -0.074741 0.050302 -0.147846
v -0.036949 0.050302 -0.147864
v -0.047189 0.050302 -0.147859
v 0.083210 0.010000 -0.053123
v 0.083214 0.010000 -0.043123
v 0.083210 0.020642 -0.053123
v 0.083214 0.020642 -0.043123
vt 0.999870 0.000000
vt 0.999870 1.571808
vt -3.500128 1.571808
vt -3.500128 0.000000
vt 0.499874 0.000000
vt 0.499874 1.571808
vt -9.219801 1.571808
vt -9.219801 0.000000
vt 0.468661 0.000000
vt 0.468661 1.571808
vt 2.780200 1.571808
vt 2.780200 0.000000
vt 0.553104 0.045343
vt 0.553104 -4.428192
vt -0.982903 -4.428192
vt -0.982903 0.045343
vt 0.553104 0.000000
vt 0.553104 1.571808
vt 4.685837 1.571808
vt 4.685837 0.000000
vt 10.522339 1.571808
vt 10.522339 0.000000
vt 0.000000 0.000000
vt 0.000000 1.571808
vt 0.674986 0.000000
vt 0.674986 1.571808
vt -9.488509 1.571808
vt -9.488509 0.000000
vt 0.999872 0.000000
vt 0.999872 1.571808
vt -3.500126 1.571808
vt -3.500126 0.000000
vt 0.522339 0.000000
vt 0.522339 1.571808
vt 5.017097 1.571808
vt 5.017097 0.000000
vt 10.999870 1.571808
vt 10.999870 0.000000
vt 0.511491 0.571808
vt 0.511491 5.045343
vt -10.000000 5.045343
vt -10.000000 0.571808
vt 0.780200 0.571808
vt 0.780200 5.045343
vt 10.499874 5.045343
vt 10.499874 0.571808
vt 0.999872 0.571808
vt 0.999872 5.045343
vt -3.500126 5.045343
vt -3.500126 0.571808
vt 0.499874 0.571808
vt 0.499874 5.045343
vt -9.219801 5.045343
vt -9.219801 0.571808
vt 0.553104 0.571808
vt 0.553104 5.045343
vt 4.685837 5.045343
vt 4.685837 0.571808
vt 0.000000 0.571808
vt 0.000000 5.045343
vt 10.522339 5.045343
vt 10.522339 0.571808
vt 0.674986 0.571808
vt 0.674986 5.045343
vt -9.488509 5.045343
vt -9.488509 0.571808
vt 0.780200 0.000000
vt 0.780200 1.571808
vt -1.531339 1.571808
vt -1.531339 0.000000
vt 10.499874 1.571808
vt 10.499874 0.000000
vt 0.511491 0.000000
vt 0.511491 1.571808
vt -10.000000 1.571808
vt -10.000000 0.000000
vt 0.017097 0.000000
vt 0.017097 1.571808
vt 1.553104 1.571808
vt 1.553104 0.000000
vt 0.522339 0.499874
vt -10.000000 0.499874
vt -10.000000 4.999872
vt 0.511491 10.999870
vt 0.000000 0.499872
vt 0.000000 4.999870
vt 10.511491 4.999870
vt 0.511491 0.999870
vt 10.674986 0.999870
vt 10.685837 -9.500126
vt 0.522339 -9.500126
vt -10.000000 -5.000128
vt -10.000000 -3.500128
vt 0.685837 0.780200
vt -3.446896 0.780200
vt 0.685837 10.499874
vt 0.553104 0.780200
vt -0.982903 0.780200
vt -5.477661 10.499874
vt 0.685837 0.499874
vt -3.446896 -9.219801
vt -9.477661 0.499874
vt 5.017097 -9.219801
vt 0.522339 -9.219801
vt 10.999870 5.045343
vt 10.999870 0.571808
vt 0.499872 0.571808
vt 0.499872 5.045343
vt -1.000128 5.045343
vt -1.000128 0.571808
vt 0.522339 0.571808
vt 0.522339 5.045343
vt 5.017097 5.045343
vt 5.017097 0.571808
vt 0.999870 0.571808
vt 0.999870 5.045343
vt -3.500128 5.045343
vt -3.500128 0.571808
vt 0.553104 0.468661
vt -0.982903 0.468661
vt -0.982903 2.780200
vt 0.553104 2.780200
vt 0.000000 1.596457
vt -3.000000 1.596345
vt -3.000000 0.000000
vt 2.499872 0.000000
vt 2.499872 1.596345
vt 0.999872 1.596345
vt 3.000000 0.499872
vt 3.000000 -1.000128
vt 0.000000 -1.000128
vt 0.000000 0.596345
vt 3.000000 0.571808
vt 3.000000 -1.000000
vt 0.000000 -1.000000
vn -1.000000 0.000000 0.000475
vn 1.000000 0.000000 -0.000475
vn 0.000476 0.000000 1.000000
vn 0.000475 0.000000 1.000000
vn -0.000475 0.000000 -1.000000
vn 0.999999 0.000000 -0.001508
vn 0.000474 0.000000 1.000000
vn -0.000000 -1.000000 0.000000
vn 0.004075 -0.999958 0.008214
g Plane.001_Plane.001_None_35.png
usemtl None_35.png
s off
f 21/31/2 35/32/2 34/33/2 20/34/2
f 17/35/2 31/36/2 39/37/2 25/38/2
f 29/39/3 43/40/3 42/41/3 28/42/3
f 56/43/4 42/44/4 41/45/4 55/46/4
f 28/47/5 42/48/5 40/49/5 26/50/5
f 31/51/5 17/52/5 18/53/5 32/54/5
f 24/55/6 38/56/6 36/57/6 22/58/6
f 19/59/2 33/60/2 32/61/2 18/62/2
f 25/63/5 39/64/5 41/65/5 27/66/5
f 23/35/7 37/36/7 38/67/7 24/68/7
f 36/69/6 50/70/6 49/71/6 35/72/6
f 40/73/3 54/74/3 51/75/3 37/76/3
f 33/77/2 47/78/2 46/79/2 32/80/2
f 31/81/2 45/82/2 53/83/2 39/84/2
f 42/85/5 56/86/5 54/87/5 40/88/5
f 32/89/5 46/90/5 45/91/5 31/92/5
f 38/93/6 52/94/6 50/95/6 36/96/6
f 27/97/2 41/98/2 44/99/2 30/100/2
f 26/97/3 40/98/3 37/101/3 23/102/3
f 22/103/6 36/104/6 35/105/6 21/106/6
f 30/107/8 44/108/8 43/109/8 29/110/8
f 45/111/9 46/112/9 47/113/9
f 45/111/9 47/113/9 50/114/9
f 48/115/9 49/116/9 50/117/9
f 50/118/9 52/119/9 51/120/9 45/121/9
f 50/118/9 47/122/9 48/123/9
f 54/124/9 56/125/9 51/126/9
f 56/127/9 55/128/9 45/129/9
f 51/130/9 56/131/9 45/132/9
f 45/111/9 55/133/9 53/134/9
f 37/81/7 51/82/7 52/135/7 38/136/7
f 34/137/2 48/138/2 47/139/2 33/140/2
f 39/141/5 53/142/5 55/143/5 41/144/5
f 35/145/2 49/146/2 48/147/2 34/148/2
f 43/149/9 44/150/9 41/151/9 42/152/9
f 20/53/6 34/153/6 60/154/6 58/155/6
f 57/59/2 58/156/2 60/157/2 59/158/2
f 60/115/10 34/159/10 33/160/10 59/161/10
f 59/162/5 33/163/5 19/164/5 57/165/5
