# Blender v2.65 (sub 0) OBJ File: '25-39.blend'
# www.blender.org
mtllib 39.mtl
o Plane.001_Plane.001_None
v -0.019999 0.010000 -0.064999
v -0.019999 0.010000 -0.099999
v -0.000046 0.010000 -0.064999
v 0.069258 0.010000 -0.099999
v 0.069258 0.010000 -0.030186
v -0.000046 0.010000 -0.030186
v -0.049999 0.010000 -0.030000
v -0.059999 0.010000 -0.030000
v -0.059999 0.010000 -0.010000
v -0.049999 0.010000 -0.010000
v -0.089999 0.010000 -0.099999
v -0.089999 0.010000 -0.030000
v -0.019999 0.010000 -0.030000
v 0.041493 0.010000 -0.085977
v 0.054617 0.010000 -0.096948
v 0.034582 0.010000 -0.091164
v 0.065270 0.010000 -0.077451
v 0.054592 0.010000 -0.081633
v 0.048610 0.010000 -0.069455
v 0.043192 0.010000 -0.072165
v 0.045544 0.010000 -0.082906
v 0.030001 0.010000 -0.030000
v 0.040001 0.010000 -0.030000
v 0.040001 0.010000 -0.010000
v 0.030001 0.010000 -0.010000
vt 0.000000 0.000151
vt 0.000000 -1.499849
vt -3.000000 -1.499849
vt -3.000000 0.000151
vt 0.000000 0.000150
vt 5.249925 -4.506945
vt 0.027898 -4.506945
vt 0.249925 0.500150
vt -5.000000 -3.999849
vt -5.000000 0.500150
vt 5.249925 4.500150
vt 0.000000 0.500151
vt 10.499850 -3.999849
vt 0.000000 -3.999849
vt 5.499850 -9.999849
vt -5.000000 -5.499849
vt 0.000000 0.500149
vt 0.027898 4.888759
vt 5.249925 -5.506945
vt 0.000000 1.500149
vt 0.000000 -0.999850
vt -3.000000 -0.999850
vt -3.000000 0.500149
vt 0.499850 0.500150
vt -4.750075 0.500150
vt -4.750075 3.493055
vt -1.603439 9.723904
vt 0.499850 0.000151
vt -4.750075 10.500150
vt 0.499850 10.500150
vt -0.793618 2.119180
vt -0.164589 -1.153522
vt -1.629766 0.615885
vt -2.554914 -0.395265
vt -3.484437 1.453625
vt -2.730462 -1.137343
vt 0.499850 0.888759
vt 0.042207 -1.307387
vt -2.882336 0.290517
vt -3.852515 0.622896
vt -0.825336 8.687352
vt 0.918297 0.791519
vt 2.117664 3.290517
vt 2.744920 1.688772
vt 0.396561 0.723904
vt -1.675259 0.978873
vt -0.064053 1.331631
vt 0.249925 0.493055
vt 1.324741 6.978873
vt 3.396561 6.723904
vt -4.972102 10.888759
vt 0.027898 0.888759
vt 10.499850 0.888759
vt 7.117664 0.290517
vt 0.324741 0.978873
vt -5.972102 4.888759
vt -0.081703 1.791519
vt 5.918297 -2.208481
vt -3.034674 -2.397240
vt 0.499850 -12.499850
vt 0.042207 0.692613
vt 0.499850 -10.499850
vt -0.825336 -2.312648
vn 0.000000 1.000000 0.000000
vn 0.000000 1.000000 -0.000001
g Plane.001_Plane.001_None_Plane.001_Plane.001_None_None
usemtl None
s off
f 7/1/1 8/2/1 9/3/1 10/4/1
f 22/5/1 3/6/1 6/7/1
f 1/8/1 7/9/1 13/10/1
f 7/1/1 1/11/1 8/2/1
f 8/12/1 11/13/1 12/14/1
f 1/8/1 11/15/1 8/16/1
f 23/17/1 5/18/1 3/19/1
f 22/5/1 23/20/1 3/6/1
f 23/17/1 22/21/1 25/22/1 24/23/1
g Plane.001_Plane.001_None_Plane.001_Plane.001_None_None_35.png
usemtl None_35.png
f 2/24/1 1/25/1 3/26/1
f 2/24/1 3/26/1 14/27/1
f 11/28/1 1/29/1 2/30/1
f 17/31/1 15/32/1 18/33/1
f 21/34/1 19/35/1 18/33/1
f 14/36/2 21/34/2 18/33/2
f 4/37/1 15/38/1 17/39/1
f 21/34/1 20/40/1 19/35/1
f 2/24/1 14/27/1 16/41/1
f 15/32/1 14/36/1 18/33/1
f 19/42/1 17/43/1 18/44/1
f 14/45/1 20/46/1 21/47/1
f 3/48/1 20/49/1 14/50/1
f 3/48/1 5/51/1 20/49/1
f 5/52/1 4/53/1 17/54/1
f 20/55/1 5/56/1 19/57/1
f 5/52/1 17/54/1 19/58/1
f 15/32/1 16/59/1 14/36/1
f 4/37/1 2/60/1 15/38/1
f 15/61/1 2/62/1 16/63/1
o Plane_Plane_None_35.png
v 0.030001 0.010000 -0.030000
v 0.040001 0.020642 -0.030000
v 0.030001 0.020643 -0.030000
v 0.040001 0.020642 -0.010000
v 0.030001 0.020643 -0.010000
v 0.040001 0.010000 -0.010000
v 0.030001 0.010000 -0.010000
v 0.040001 0.010000 -0.030000
v -0.049999 0.010000 -0.030000
v -0.049999 0.010000 -0.010000
v -0.049999 0.020642 -0.010000
v -0.049999 0.020642 -0.030000
v -0.059999 0.010000 -0.010000
v -0.059999 0.020642 -0.010000
v -0.089999 0.010000 -0.030000
v -0.089999 0.010000 -0.099999
v -0.089999 0.050825 -0.099999
v -0.089999 0.050825 -0.030000
v -0.059999 0.010000 -0.030000
v -0.059999 0.020643 -0.030000
v 0.069258 0.050824 -0.099999
v -0.019999 0.050824 -0.030000
v -0.019999 0.010000 -0.030000
v 0.069258 0.010000 -0.099999
v -0.019999 0.010000 -0.064999
v -0.019999 0.050824 -0.064999
v -0.000046 0.010000 -0.064999
v -0.000046 0.050824 -0.064999
v 0.069258 0.010000 -0.030186
v 0.069258 0.050824 -0.030186
v -0.000046 0.010000 -0.030186
v -0.000046 0.050824 -0.030186
v -0.089999 0.070299 -0.099999
v -0.089999 0.070299 -0.030000
v 0.069258 0.070297 -0.099999
v -0.019999 0.070297 -0.030000
v -0.019999 0.070297 -0.064999
v -0.000046 0.070297 -0.064999
v 0.069258 0.070297 -0.030186
v -0.000046 0.070297 -0.030186
v 0.049597 0.070298 -0.099999
v 0.049596 0.050824 -0.099999
v 0.033800 0.050824 -0.099999
v 0.033527 0.070298 -0.099999
v 0.049597 0.070298 -0.134246
v 0.049596 0.050824 -0.134246
v 0.033800 0.050824 -0.134246
v 0.033527 0.070298 -0.134246
v 0.049597 0.070298 -0.151098
v 0.049596 0.050824 -0.151098
v 0.033800 0.050824 -0.151098
v 0.033527 0.070298 -0.151098
v -0.001810 0.050326 -0.134246
v -0.002082 0.069799 -0.134246
v -0.001810 0.050326 -0.151098
v -0.002082 0.069799 -0.151098
v -0.019228 0.050082 -0.134246
v -0.019501 0.069555 -0.134246
v -0.019228 0.050082 -0.151098
v -0.019501 0.069555 -0.151098
v -0.001810 0.050326 -0.201731
v -0.002082 0.069799 -0.201731
v -0.019228 0.050082 -0.201731
v -0.019501 0.069555 -0.201731
v -0.001810 0.050326 -0.250006
v -0.002082 0.069799 -0.250006
v -0.019228 0.050082 -0.250006
v -0.019501 0.069555 -0.250006
v 0.046465 0.051002 -0.201731
v 0.046193 0.070475 -0.201731
v 0.046465 0.051002 -0.250006
v 0.046193 0.070475 -0.250006
vt 0.548227 -1.047926
vt 0.548227 0.548374
vt -0.951773 0.548374
vt -0.951773 -1.048076
vt 0.000000 0.000000
vt -3.000000 0.000000
vt -3.000000 1.596300
vt 0.000000 1.596300
vt 0.000000 0.000151
vt 0.000000 -1.499849
vt 1.596300 -1.499849
vt 1.596300 0.000151
vt 10.499850 0.000000
vt 10.499850 6.123788
vt 0.000000 6.123788
vt 0.000000 1.596450
vt 0.000000 0.500151
vt 0.000000 2.000151
vt -3.000000 2.000151
vt -3.000000 0.500151
vt -6.382411 7.006349
vt -10.882410 7.006348
vt -6.382411 5.409899
vt -10.882410 5.410048
vt -6.882411 6.882561
vt 3.617588 6.882711
vt -2.382411 11.409899
vt 14.056892 6.882690
vt 17.006199 13.006349
vt 17.006199 6.882710
vt -6.882411 7.006349
vt -6.882410 0.882561
vt -2.382411 5.409899
vt -6.382412 6.882710
vt -6.382412 13.006349
vt -10.882410 11.410048
vt -12.382410 11.409899
vt -6.382412 0.882710
vt -3.389505 0.882710
vt -3.389506 7.006348
vt 0.249925 0.000000
vt -5.000000 0.000000
vt -5.000000 6.123638
vt 0.249925 6.123638
vt 0.499850 0.000002
vt -9.972102 0.000002
vt -9.972103 6.123640
vt 0.499850 6.123640
vt 0.249925 6.123639
vt -4.972103 6.123639
vt -4.972102 0.000000
vt -6.389506 6.882710
vt -9.382412 6.882710
vt -9.382412 3.961726
vt -6.389506 3.961725
vt -5.993803 6.882709
vt -16.389507 6.882708
vt -16.389507 3.961724
vt -5.993803 3.961724
vt -5.943109 6.882689
vt -2.993802 6.882709
vt -2.993803 3.961725
vt -5.942966 3.961706
vt 0.249925 0.123638
vt -5.000000 0.123638
vt -5.000000 3.044622
vt 0.249925 3.044622
vt 0.027897 0.123639
vt 5.249925 0.123639
vt 5.249925 3.044623
vt 0.027897 3.044623
vt -16.882412 6.882559
vt -16.882412 3.961576
vt -6.382412 3.961726
vt 0.499850 0.123640
vt -9.972103 0.123640
vt -9.972103 3.044624
vt 0.499850 3.044624
vt 0.000000 0.123788
vt 10.499850 0.123788
vt 10.499850 3.044772
vt 0.000000 3.044772
vt 10.499850 0.000151
vt 0.000000 10.500149
vt 0.499850 0.888758
vt -9.972103 0.888758
vt -9.972103 -9.506945
vt 0.000000 0.500149
vt 10.499850 -9.999849
vt 5.249925 0.500149
vt 0.499850 20.939596
vt 0.499850 23.888758
vt -4.750075 10.500149
vt 0.499850 18.529043
vt 0.499850 0.000151
vt -4.750075 -9.506945
vt 0.249925 0.500149
vt 5.499850 13.888759
vt 0.249925 3.493055
vt 11.687391 6.882677
vt 11.646482 3.961693
vt -6.882411 3.961576
vt 0.499850 0.569953
vt 0.499850 2.939453
vt 5.636870 2.939453
vt 5.636870 0.569953
vt 0.636870 0.569953
vt 0.636870 2.939453
vt 3.164664 2.939453
vt 3.164664 0.569953
vt 0.499850 0.939596
vt 0.499850 -1.470956
vt 5.636870 -1.470956
vt 5.636870 0.939596
vt 0.499850 0.044657
vt 0.499850 -2.876327
vt 5.636870 -2.876327
vt 5.636870 0.044657
vt 0.499850 0.123659
vt 0.499850 3.044642
vt 5.636870 3.044642
vt 5.636870 0.123659
vt -6.312608 6.882675
vt -3.943109 6.882689
vt -3.942966 3.961706
vt -6.353518 3.961692
vt 0.636870 0.939596
vt 0.636870 -1.470956
vt 3.164664 -1.470956
vt 3.164664 0.939596
vt 3.164664 -4.771448
vt 0.636870 -4.771448
vt 0.636870 0.123659
vt 0.636870 3.044642
vt 3.164664 3.044642
vt 3.164664 0.123659
vt 0.164664 0.187644
vt -2.363130 0.187644
vt -2.363130 -2.425133
vt 0.164664 -2.425133
vt 0.164664 0.529044
vt -2.363130 0.529044
vt -2.363130 -4.812356
vt 0.164664 -4.812356
vt -6.353518 6.961692
vt -6.312608 9.882675
vt -11.654009 9.957483
vt -11.694918 7.036500
vt -11.694918 4.036500
vt -11.654009 6.957483
vt 0.636870 0.933254
vt 0.636870 -1.987730
vt 3.164664 -1.987730
vt 3.164664 0.933254
vt -6.694917 6.036500
vt -6.654009 8.957483
vt -9.266785 8.994079
vt -9.307693 6.073094
vt 0.164664 0.615777
vt 0.164664 3.228552
vt 7.759686 3.228552
vt 7.759686 0.615777
vt 0.636870 0.228552
vt 3.164664 0.228552
vt 3.164664 -2.384223
vt 0.636870 -2.384223
vt 0.759686 0.187644
vt 0.759686 -2.425133
vt 8.000977 -2.425133
vt 8.000977 0.187644
vt 0.164664 0.048865
vt 0.164664 2.969849
vt 7.759686 2.969849
vt 7.759686 0.048865
vt 0.164664 0.933254
vt 0.164664 -1.987730
vt 7.759686 -1.987730
vt 7.759686 0.933254
vt 7.759686 -2.425133
vt 7.759686 0.187644
vt -6.654009 6.957483
vt -6.694918 4.036500
vt -9.307693 4.073094
vt -9.266785 6.994079
vt 0.759686 0.615777
vt 0.759686 3.228552
vt 8.000977 3.228552
vt 8.000977 0.615777
vt 8.000977 7.428884
vt 0.759686 7.428884
vt 0.759686 0.933254
vt 0.759686 -1.987730
vt 8.000977 -1.987730
vt 8.000977 0.933254
vt 0.759686 0.150281
vt 0.759686 3.071264
vt 8.000977 3.071264
vt 8.000977 0.150281
vt 0.000977 0.228552
vt -7.240314 0.228552
vt -7.240314 7.469792
vt 0.000977 7.469792
vt 0.546323 3.935085
vt 0.587231 6.856068
vt 0.587231 8.856068
vt 0.546322 5.935085
vt -6.882411 13.006349
vt -2.882485 1.909972
vt 1.506125 -2.617366
vt 1.506125 3.506272
vt -2.493875 2.382634
vt -6.882485 6.909971
vt -8.382484 6.909821
vt -2.889578 2.382635
vt 7.506124 2.382634
vt 1.617515 6.909822
vt -2.889579 8.506274
vt -3.382484 1.909822
vt -3.382484 3.506272
vt -7.889579 3.506273
vt -2.882484 2.506272
vt -2.882484 0.909972
vt 1.506125 2.506273
vt 0.000000 0.000002
vt 0.000000 1.596452
vt -3.000000 1.596452
vt -3.000000 0.000002
vt 0.000000 0.000149
vt 0.000000 1.500149
vt -3.000000 1.500149
vt -3.000000 0.000149
vt 0.000000 0.596302
vt 0.000000 -0.999998
vt -3.000000 -0.999998
vt -3.000000 0.596302
vn 0.000000 0.000000 -1.000000
vn -1.000000 -0.000000 0.000000
vn 1.000000 -0.000000 0.000000
vn -0.000050 -1.000000 -0.000025
vn 0.000000 0.000000 1.000000
vn -0.000014 -1.000000 0.000000
vn 0.000000 -1.000000 0.000000
vn -0.000006 -1.000000 -0.000015
vn -0.000006 -1.000000 -0.000016
vn 0.000006 1.000000 0.000000
vn -0.000006 -1.000000 -0.000000
vn 0.999902 0.014004 0.000000
vn -1.000000 0.000049 -0.000000
vn -0.014004 0.999902 0.000000
vn 0.014004 -0.999902 0.000000
vn -0.014005 0.999902 -0.000000
vn -0.999902 -0.014004 -0.000000
vn -0.006357 0.000000 -0.999980
vn -0.000001 -0.006161 -0.999981
vn -0.000000 -0.006162 -0.999981
vn 0.006190 0.000000 -0.999981
vn -0.000100 -1.000000 -0.000000
g Plane_Plane_None_35.png_Plane_Plane_None_35.png_None_35.png_35.png
usemtl None_35.png_35.png
s off
f 29/64/3 31/65/3 32/66/3 30/67/3
f 34/68/4 35/69/4 36/70/4 37/71/4
f 35/72/3 38/73/3 39/74/3 36/75/3
f 40/68/5 41/76/5 42/77/5 43/78/5
f 44/68/5 45/79/5 39/70/5 38/69/5
f 45/80/6 37/81/6 36/82/6 39/83/6
f 44/84/3 40/85/3 45/86/3
f 48/84/3 34/85/3 37/87/3
f 43/88/3 47/89/3 45/90/3
f 67/91/7 49/92/7 46/93/7
f 40/94/3 43/95/3 45/96/3
f 47/97/3 48/98/3 37/99/3
f 47/97/3 37/99/3 45/100/3
f 50/84/3 51/101/3 53/102/3 52/103/3
f 50/104/4 48/105/4 47/106/4 51/107/4
f 49/108/4 54/109/4 55/110/4 46/111/4
f 52/104/5 53/112/5 57/113/5 56/114/5
f 53/115/3 51/116/3 62/117/3 63/118/3
f 55/119/3 57/120/3 65/121/3 64/122/3
f 67/123/7 46/124/7 60/125/7 66/126/7
f 51/127/4 47/128/4 61/129/4 62/130/4
f 57/131/5 53/132/5 63/133/5 65/134/5
f 47/97/3 43/135/3 59/136/3 61/137/3
f 46/138/4 55/139/4 64/140/4 60/141/4
f 43/142/5 42/143/5 58/144/5 59/145/5
f 59/72/8 58/146/8 61/147/8
f 60/148/9 64/149/9 65/150/9
f 61/151/8 58/152/8 62/153/8
f 66/154/10 60/155/10 62/156/10
f 69/157/11 66/154/11 62/156/11
f 58/158/11 69/157/11 62/156/11
f 60/148/9 65/150/9 63/159/9
f 62/160/9 60/161/9 63/162/9
f 42/88/7 68/163/7 69/164/7 58/165/7
f 68/166/12 67/167/12 71/168/12 72/169/12
f 72/170/12 71/171/12 75/172/12 76/173/12
f 66/174/13 69/175/13 73/176/13 70/177/13
f 69/178/14 68/179/14 72/180/14 73/181/14
f 67/182/15 66/183/15 70/184/15 71/185/15
f 76/186/7 75/187/7 74/188/7 77/189/7
f 70/190/13 73/191/13 77/192/13 74/193/13
f 72/170/16 76/173/16 80/194/16 78/195/16
f 71/196/15 70/197/15 74/198/15 75/199/15
f 81/200/17 79/201/17 83/202/17 85/203/17
f 77/204/17 73/205/17 79/206/17 81/207/17
f 73/208/3 72/209/3 78/210/3 79/211/3
f 76/186/7 77/189/7 81/212/7 80/213/7
f 83/214/14 82/215/14 84/216/14 85/217/14
f 79/218/3 78/219/3 82/220/3 83/221/3
f 84/222/18 80/223/18 86/224/18 88/225/18
f 78/226/18 80/227/18 84/228/18 82/229/18
f 87/230/17 89/231/17 93/232/17 91/233/17
f 80/234/19 81/235/19 87/236/19 86/237/19
f 85/238/14 84/239/14 88/240/14 89/241/14
f 81/200/17 85/203/17 89/242/17 87/243/17
f 90/244/7 91/245/7 93/246/7 92/247/7
f 88/248/18 86/249/18 90/250/18 92/251/18
f 87/230/17 91/233/17 97/252/17 95/253/17
f 89/254/14 88/255/14 92/256/14 93/257/14
f 94/258/19 95/259/19 97/260/19 96/261/19
f 90/262/16 86/263/16 94/264/16 96/265/16
f 86/244/3 87/245/3 95/266/3 94/267/3
f 91/218/7 90/219/7 96/268/7 97/269/7
f 42/88/7 41/270/7 68/163/7
f 41/270/7 49/92/7 67/91/7
f 68/163/7 41/270/7 67/91/7
f 27/271/20 55/272/20 54/273/20
f 55/274/21 27/275/21 28/276/21
f 57/277/22 55/278/22 28/279/22
f 57/277/23 28/279/23 56/280/23
f 28/281/23 26/282/23 56/283/23
f 33/284/20 27/285/20 54/286/20
g Plane_Plane_None_35.png_Plane_Plane_None_35.png_None_  1
usemtl None_  1
f 26/287/5 28/288/5 30/289/5 32/290/5
f 28/291/24 27/292/24 29/293/24 30/294/24
f 27/295/4 33/296/4 31/297/4 29/298/4
f 50 49
