# ###############################
# Obj file written by RoadKill1_1
# RoadKill by Andy Swann
# http://www.pullin-shapes.co.uk/
# ###############################
g RoadKillOut
o RoadKillOut
# 27 Vertex coords
v 0.090710 -0.294572 0.081208
v -0.071706 -0.294572 0.081208
v 0.090710 -0.294572 -0.081208
v -0.071706 -0.294572 -0.081208
v 0.212521 0.720524 0.203019
v -0.193517 0.720524 0.203019
v 0.212521 0.720524 -0.203019
v -0.193517 0.720524 -0.203019
v 0.009502 0.999955 0.000000
v -0.094784 -0.302576 -0.030308
v -0.148448 -0.330762 0.030308
v -0.094784 -0.302576 0.030308
v -0.148448 -0.330762 -0.030308
v -0.230700 0.053961 0.075769
v -0.364859 -0.016504 0.075769
v -0.230700 0.053961 -0.075769
v -0.364859 -0.016504 -0.075769
v -0.346273 0.111055 0.000000
v 0.157769 -0.317321 -0.020234
v 0.122864 -0.296843 0.020234
v 0.157769 -0.317321 0.020234
v 0.122864 -0.296843 -0.020234
v 0.311934 -0.114522 0.050586
v 0.224671 -0.063327 0.050586
v 0.311934 -0.114522 -0.050586
v 0.224671 -0.063327 -0.050586
v 0.303533 -0.028871 0.000000

# 24 Normal vectors
vn -0.235630 0.448615 0.697456
vn 0.000000 -0.118308 -0.985904
vn 0.985904 -0.118308 0.000000
vn -0.985904 -0.118308 0.000000
vn 0.000000 -0.118308 0.985904
vn 0.055013 -0.104740 0.985904
vn -0.817818 -0.563184 0.000000
vn 0.927845 0.353704 0.000000
vn 0.055013 -0.104740 -0.985904
vn 0.000000 0.506732 0.697456
vn 0.000000 0.506732 -0.697456
vn 0.697456 0.506732 0.000000
vn -0.697456 0.506732 0.000000
vn -0.235630 0.448615 -0.697456
vn 0.381835 0.772933 0.000000
vn -0.853096 0.124299 0.000000
vn 0.256413 0.437069 0.697455
vn -0.059866 -0.102043 0.985905
vn -0.910233 0.396837 0.000000
vn 0.790501 -0.600925 0.000000
vn -0.059866 -0.102043 -0.985903
vn 0.256414 0.437070 -0.697456
vn 0.857987 0.084149 0.000000
vn -0.345160 0.789992 0.000000

# 60 texture coords
vt 0.864684 0.201130 0.00
vt 0.944563 0.201130 0.00
vt 0.904623 0.269079 0.00
vt 0.496551 0.000000 0.00
vt 0.582163 0.000000 0.00
vt 0.646372 0.538915 0.00
vt 0.432342 0.538915 0.00
vt 0.064209 0.000000 0.00
vt 0.149822 0.000000 0.00
vt 0.214031 0.538915 0.00
vt 0.000000 0.538915 0.00
vt 0.712722 0.000000 0.00
vt 0.798334 0.000000 0.00
vt 0.862543 0.538915 0.00
vt 0.648513 0.538915 0.00
vt 0.280380 0.000000 0.00
vt 0.365992 0.000000 0.00
vt 0.430202 0.538915 0.00
vt 0.216171 0.538915 0.00
vt 0.888647 0.000000 0.00
vt 0.920599 0.000000 0.00
vt 0.185319 0.728190 0.00
vt 0.217271 0.728190 0.00
vt 0.241234 0.929320 0.00
vt 0.161356 0.929320 0.00
vt 0.104642 0.728190 0.00
vt 0.136593 0.728190 0.00
vt 0.160557 0.929320 0.00
vt 0.080678 0.929320 0.00
vt 0.023964 0.728190 0.00
vt 0.055916 0.728190 0.00
vt 0.079879 0.929320 0.00
vt 0.000000 0.929320 0.00
vt 0.323186 0.720980 0.00
vt 0.539357 0.720980 0.00
vt 0.107015 0.720980 0.00
vt 0.755528 0.720980 0.00
vt 0.039939 0.997269 0.00
vt 0.120617 0.997270 0.00
vt 0.201295 0.997269 0.00
vt 0.349759 0.862470 0.00
vt 0.403089 0.862471 0.00
vt 0.376423 0.907835 0.00
vt 0.365759 0.728190 0.00
vt 0.387091 0.728190 0.00
vt 0.419621 0.728190 0.00
vt 0.440953 0.728190 0.00
vt 0.456951 0.862470 0.00
vt 0.403622 0.862470 0.00
vt 0.258032 0.728190 0.00
vt 0.279364 0.728190 0.00
vt 0.295363 0.862470 0.00
vt 0.242033 0.862470 0.00
vt 0.311894 0.728190 0.00
vt 0.333226 0.728190 0.00
vt 0.349226 0.862470 0.00
vt 0.295896 0.862471 0.00
vt 0.322561 0.907835 0.00
vt 0.268698 0.907835 0.00
vt 0.430287 0.907835 0.00

# 24 Faces
f  15/1/1  14/2/1  18/3/1 
f  3/4/2  4/5/2  8/6/2  7/7/2 
f  1/8/3  3/9/3  7/10/3  5/11/3 
f  4/12/4  2/13/4  6/14/4  8/15/4 
f  2/16/5  1/17/5  5/18/5  6/19/5 
f  11/20/6  12/21/6  14/2/6  15/1/6 
f  13/22/7  11/23/7  15/24/7  17/25/7 
f  12/26/8  10/27/8  16/28/8  14/29/8 
f  10/30/9  13/31/9  17/32/9  16/33/9 
f  6/19/10  5/18/10  9/34/10 
f  7/7/11  8/6/11  9/35/11 
f  5/11/12  7/10/12  9/36/12 
f  8/15/13  6/14/13  9/37/13 
f  16/33/14  17/32/14  18/38/14 
f  14/29/15  16/28/15  18/39/15 
f  17/25/16  15/24/16  18/40/16 
f  24/41/17  23/42/17  27/43/17 
f  20/44/18  21/45/18  23/42/18  24/41/18 
f  22/46/19  20/47/19  24/48/19  26/49/19 
f  21/50/20  19/51/20  25/52/20  23/53/20 
f  19/54/21  22/55/21  26/56/21  25/57/21 
f  25/57/22  26/56/22  27/58/22 
f  23/53/23  25/52/23  27/59/23 
f  26/49/24  24/48/24  27/60/24 
