# Blender v2.65 (sub 0) OBJ File: 'sink.blend'
# www.blender.org
mtllib sink.mtl
o Plane
v -0.233600 0.000000 -0.233600
v 0.233600 0.000000 -0.233600
v -0.233600 0.000000 0.233600
v 0.233600 0.000000 0.233600
v -0.233600 1.342445 -0.233600
v 0.233600 1.342445 -0.233600
v -0.233600 1.342445 0.233600
v 0.233600 1.342445 0.233600
v -0.342194 1.472916 -0.342194
v 0.342194 1.472916 -0.342194
v -0.342194 1.472916 0.342194
v 0.342194 1.472916 0.342194
v -0.543558 1.603387 -0.543558
v 0.543558 1.603387 -0.543558
v -0.543558 1.603387 0.543558
v 0.543558 1.603387 0.543558
v -0.913948 1.681048 -0.913948
v 0.913948 1.681048 -0.913948
v -0.913948 1.681048 0.913948
v 0.913948 1.681048 0.913948
v -0.984109 1.758709 -0.984109
v 0.984109 1.758709 -0.984109
v -0.984109 1.758709 0.984109
v 0.984109 1.758709 0.984109
v -0.984109 1.839854 -0.984109
v 0.984109 1.839854 -0.984109
v -0.984109 1.839854 0.984109
v 0.984109 1.839854 0.984109
v -0.817417 1.908515 -0.817417
v 0.817417 1.908515 -0.817417
v -0.817417 1.908515 0.817417
v 0.817417 1.908515 0.817417
v -0.817417 1.836220 -0.817417
v 0.817417 1.836220 -0.817417
v -0.817417 1.836220 0.817417
v 0.817417 1.836220 0.817417
v -0.704095 1.749465 -0.704095
v 0.704095 1.749465 -0.704095
v -0.704095 1.749465 0.704095
v 0.704095 1.749465 0.704095
v -0.544883 1.691828 -0.544883
v 0.544883 1.691828 -0.544883
v -0.544883 1.691828 0.544883
v 0.544883 1.691828 0.544883
v -0.364154 1.648600 -0.364154
v 0.364154 1.648600 -0.364154
v -0.364154 1.648600 0.364154
v 0.364154 1.648600 0.364154
v -0.142580 1.605373 -0.142580
v 0.142580 1.605373 -0.142580
v -0.142580 1.605373 0.142580
v 0.142580 1.605373 0.142580
v -0.142580 0.337360 -0.142580
v 0.142580 0.337360 -0.142580
v -0.142580 0.337360 0.142580
v 0.142580 0.337360 0.142580
v 0.058447 2.090990 -0.939319
v -0.045583 2.090990 -0.939319
v -0.045583 2.090206 -0.843959
v 0.058447 1.897582 -0.843959
v 0.058447 1.858303 -0.939319
v -0.045583 1.858303 -0.939319
v 0.058447 2.090206 -0.843959
v -0.045583 1.897582 -0.843959
v 0.058447 2.250762 -0.936139
v -0.045583 2.250762 -0.936139
v -0.045583 2.216507 -0.847139
v 0.058447 2.216507 -0.847139
v 0.055339 2.372847 -0.879343
v -0.042475 2.372847 -0.879343
v -0.042475 2.302381 -0.823893
v 0.055339 2.302381 -0.823893
v 0.055339 2.445438 -0.783124
v -0.042475 2.445438 -0.783124
v -0.042475 2.360735 -0.753705
v 0.055339 2.360735 -0.753705
v 0.055339 2.477764 -0.666164
v -0.042475 2.477764 -0.666164
v -0.042475 2.391250 -0.689733
v 0.055339 2.391250 -0.689733
v 0.055339 2.442287 -0.561245
v -0.042475 2.442287 -0.561245
v -0.042475 2.380960 -0.626659
v 0.055339 2.380960 -0.626659
v 0.055339 2.379494 -0.506697
v -0.042475 2.379494 -0.506697
v -0.042475 2.346576 -0.590102
v 0.055339 2.346576 -0.590102
v 0.055339 2.305589 -0.480820
v -0.042475 2.305589 -0.480820
v -0.042475 2.305212 -0.570485
v 0.055339 2.305212 -0.570485
v 0.069173 2.275284 -0.468011
v -0.056308 2.275284 -0.468011
v -0.056309 2.274801 -0.583038
v 0.069173 2.274801 -0.583038
v 0.092891 2.244998 -0.446142
v -0.080026 2.244998 -0.446142
v -0.080026 2.244332 -0.604652
v 0.092891 2.244332 -0.604652
v 0.092891 2.188597 -0.445905
v -0.080026 2.188597 -0.445905
v -0.080026 2.187931 -0.604415
v 0.092891 2.187931 -0.604415
v 0.256593 1.885225 -0.873959
v 0.359216 1.878825 -0.889497
v 0.256593 1.980661 -0.876176
v 0.359216 1.980755 -0.892980
v 0.358002 1.980564 -0.858828
v 0.305746 1.980488 -0.845264
v 0.257672 1.980589 -0.863349
v 0.358002 1.891832 -0.857918
v 0.305746 1.896998 -0.845377
v 0.257672 1.890110 -0.862099
v 0.360092 1.869447 -0.912264
v 0.307837 1.860837 -0.933166
v 0.253491 1.871169 -0.908084
v 0.360092 1.980893 -0.917602
v 0.307837 1.981019 -0.940208
v 0.253491 1.980868 -0.913081
v -0.229059 1.870239 -0.910341
v -0.343069 1.877656 -0.892335
v -0.229059 1.980409 -0.913154
v -0.343069 1.981000 -0.893689
v -0.225182 1.980494 -0.910360
v -0.225182 1.981728 -0.869689
v -0.242740 1.982305 -0.850708
v -0.225182 1.871304 -0.907756
v -0.225182 1.886801 -0.870133
v -0.242740 1.894033 -0.852575
v -0.305446 1.894033 -0.852575
v -0.343069 1.882668 -0.880166
v -0.262805 1.860972 -0.932839
v -0.310462 1.860972 -0.932839
v -0.343070 1.872337 -0.905248
v -0.305446 1.982305 -0.850708
v -0.343069 1.981399 -0.880534
v -0.262805 1.979670 -0.937475
v -0.310462 1.979670 -0.937475
v -0.343070 1.980576 -0.907649
vt 0.383200 0.383200
vt 0.383200 0.616800
vt 0.616800 0.616800
vt 0.616800 0.383200
vt 0.383200 0.171222
vt 0.616800 0.171222
vt 0.671097 0.236458
vt 0.328903 0.236458
vt 0.383200 0.500000
vt 0.616800 0.500000
vt 0.616800 1.171222
vt 0.383200 1.171222
vt 0.328903 0.671097
vt 0.328903 0.328903
vt 0.228221 0.228221
vt 0.228221 0.771779
vt 0.771779 0.228221
vt 0.956974 0.043026
vt 0.043026 0.043026
vt 0.671097 0.328903
vt 0.671097 0.671097
vt 0.771779 0.771779
vt 0.043026 0.340524
vt 0.956974 0.340524
vt 0.992055 0.379354
vt 0.007945 0.379354
vt 0.043026 0.956974
vt 0.956974 0.956974
vt 0.007945 0.419927
vt 0.992055 0.419927
vt 0.992055 0.007945
vt 0.992055 0.992055
vt 0.908708 0.908708
vt 0.908708 0.091292
vt 0.908708 0.454257
vt 0.091292 0.454257
vt 0.091292 0.418110
vt 0.908708 0.418110
vt 0.007945 0.992055
vt 0.091292 0.908708
vt 0.328465 0.946167
vt 0.007945 0.007945
vt 0.091292 0.091292
vt 0.147953 0.147953
vt 0.147953 0.852047
vt 0.852047 0.852047
vt 0.852047 0.147953
vt 0.772442 0.227558
vt 0.227558 0.227558
vt 0.227558 0.772442
vt 0.772442 0.772442
vt 0.317923 0.682077
vt 0.682077 0.682077
vt 0.682077 0.317923
vt 0.317923 0.317923
vt 0.571290 0.571290
vt 0.571290 0.428710
vt 0.428710 0.571290
vt 0.428710 0.428710
vt 0.428710 0.302686
vt 0.571290 0.302686
vt 0.571290 -0.331320
vt 0.428710 -0.331320
vt 0.477209 0.969660
vt 0.529223 0.921979
vt 0.680046 0.434724
vt 0.653918 0.430419
vt 0.653918 0.490510
vt 0.680046 0.490446
vt 0.628297 0.936980
vt 0.529223 0.969660
vt 0.477209 0.921979
vt 0.385470 0.435120
vt 0.368597 0.430486
vt 0.368597 0.489835
vt 0.385470 0.490204
vt 0.921979 0.448791
vt 0.969660 0.429152
vt 0.969660 0.545495
vt 0.921979 0.545103
vt 0.529223 0.429152
vt 0.477209 0.429152
vt 0.477209 0.545495
vt 0.529223 0.545495
vt 0.477209 0.448791
vt 0.529223 0.448791
vt 0.529223 0.545103
vt 0.477209 0.545103
vt 0.968069 0.625381
vt 0.923570 0.608253
vt 0.477209 0.608253
vt 0.529223 0.608253
vt 0.527670 0.651191
vt 0.478762 0.651191
vt 0.477209 0.625381
vt 0.529223 0.625381
vt 0.478762 0.911947
vt 0.527670 0.911947
vt 0.527670 0.876853
vt 0.478762 0.876853
vt 0.939671 0.686424
vt 0.911947 0.651191
vt 0.478762 0.686424
vt 0.527670 0.686424
vt 0.891562 0.722719
vt 0.876853 0.680367
vt 0.844867 0.695625
vt 0.833082 0.738882
vt 0.527670 0.939671
vt 0.478762 0.939671
vt 0.478762 0.891562
vt 0.527670 0.891562
vt 0.527670 0.833082
vt 0.478762 0.833082
vt 0.478762 0.780622
vt 0.527670 0.780622
vt 0.527670 0.844867
vt 0.478762 0.844867
vt 0.527670 0.721143
vt 0.478762 0.721143
vt 0.478762 0.689747
vt 0.527670 0.689747
vt 0.813330 0.690480
vt 0.780622 0.721143
vt 0.527670 0.813330
vt 0.478762 0.813330
vt 0.795051 0.673288
vt 0.753348 0.689747
vt 0.740410 0.652795
vt 0.785242 0.652606
vt 0.527670 0.795051
vt 0.478762 0.795051
vt 0.478762 0.652606
vt 0.527670 0.652606
vt 0.534586 0.637400
vt 0.471846 0.637400
vt 0.478762 0.652795
vt 0.527670 0.652795
vt 0.478762 0.673288
vt 0.527670 0.673288
vt 0.734006 0.637642
vt 0.791519 0.637400
vt 0.802326 0.622166
vt 0.723071 0.622499
vt 0.471846 0.637642
vt 0.534586 0.637642
vt 0.802208 0.593966
vt 0.722952 0.594298
vt 0.546445 0.622166
vt 0.459987 0.622166
vt 0.459987 0.622499
vt 0.546445 0.622499
vt 0.459987 0.802208
vt 0.546445 0.802208
vt 0.546445 0.722952
vt 0.459987 0.722952
vt 0.546445 0.593966
vt 0.459987 0.593966
vt 0.459987 0.594298
vt 0.546445 0.594298
vt 0.628297 0.938088
vt 0.679001 0.929414
vt 0.679608 0.946490
vt 0.628836 0.931674
vt 0.652873 0.922632
vt 0.679608 0.944748
vt 0.628836 0.445055
vt 0.652873 0.448499
vt 0.652873 0.490244
vt 0.628836 0.490294
vt 0.680046 0.958801
vt 0.653918 0.970104
vt 0.626746 0.956540
vt 0.679001 0.445916
vt 0.679001 0.490282
vt 0.944748 0.439412
vt 0.956132 0.434724
vt 0.958801 0.490446
vt 0.946490 0.490377
vt 0.954042 0.435585
vt 0.936980 0.442612
vt 0.938088 0.490330
vt 0.956540 0.490434
vt 0.928959 0.445916
vt 0.929414 0.490282
vt 0.931049 0.445055
vt 0.931674 0.490294
vt 0.626746 0.435585
vt 0.626746 0.490434
vt 0.328465 0.946844
vt 0.387409 0.955180
vt 0.385470 0.956577
vt 0.387409 0.934844
vt 0.328465 0.940267
vt 0.347277 0.925354
vt 0.378630 0.925354
vt 0.385470 0.955171
vt 0.946167 0.438828
vt 0.940083 0.441334
vt 0.940267 0.490700
vt 0.946844 0.490500
vt 0.368597 0.968737
vt 0.344769 0.968737
vt 0.328465 0.953824
vt 0.387409 0.435652
vt 0.387409 0.490247
vt 0.344769 0.430486
vt 0.344769 0.489835
vt 0.935066 0.443401
vt 0.953878 0.435652
vt 0.955180 0.490247
vt 0.934844 0.490864
vt 0.328465 0.436168
vt 0.328465 0.490288
vt 0.926287 0.447017
vt 0.925354 0.491153
vt 0.952624 0.436168
vt 0.953824 0.490288
vt 0.347277 0.447017
vt 0.378630 0.447017
vt 0.378630 0.491153
vt 0.347277 0.491153
vt 0.328465 0.441334
vt 0.328465 0.490700
vt 0.368597 0.966419
vt 0.328465 0.952624
vt 0.344769 0.966419
vt 0.626746 0.954042
vt 0.653918 0.966583
vt 0.680046 0.956132
vt 0.679001 0.928959
vt 0.652873 0.922689
vt 0.628836 0.931049
vt 0.328465 0.940083
vt 0.347277 0.926287
vt 0.378630 0.926287
vt 0.387409 0.935066
vt 0.387409 0.953878
vn -0.000000 -1.000000 0.000000
vn 0.768604 -0.639724 0.000000
vn 1.000000 0.000000 0.000000
vn 0.000000 -0.000000 -1.000000
vn 0.000000 0.000000 1.000000
vn -1.000000 -0.000000 0.000000
vn -0.543769 -0.839235 0.000000
vn 0.000000 -0.639724 -0.768604
vn 0.000000 -0.639724 0.768604
vn -0.768604 -0.639724 0.000000
vn 0.000000 -0.978718 0.205212
vn 0.543769 -0.839235 0.000000
vn 0.000000 -0.839235 -0.543769
vn 0.000000 -0.839235 0.543769
vn 0.000000 -0.670368 0.742029
vn -0.205212 -0.978718 0.000000
vn 0.205212 -0.978718 0.000000
vn 0.000000 -0.978718 -0.205212
vn -0.742029 -0.670368 0.000000
vn 0.742029 -0.670368 0.000000
vn 0.000000 -0.670368 -0.742029
vn 0.380859 0.924633 0.000000
vn -0.000000 0.924633 -0.380859
vn 0.000000 0.924633 0.380859
vn -0.380859 0.924633 0.000000
vn 0.607877 0.794031 0.000000
vn -0.607877 0.794031 0.000000
vn 0.000000 0.794031 0.607877
vn 0.000000 0.794031 -0.607877
vn 0.000000 0.940282 -0.340396
vn 0.340396 0.940282 0.000000
vn -0.340396 0.940282 0.000000
vn 0.000000 0.940282 0.340396
vn 0.000000 0.972567 0.232623
vn 0.000000 0.972567 -0.232623
vn 0.232623 0.972567 0.000000
vn -0.232623 0.972567 0.000000
vn -0.191484 0.981496 0.000000
vn 0.000000 0.981496 0.191484
vn 0.000000 0.981496 -0.191484
vn 0.191484 0.981496 0.000000
vn 0.000000 1.000000 0.000000
vn 0.000000 0.924631 -0.380864
vn 0.387260 -0.049205 -0.920657
vn 0.000000 0.924634 -0.380858
vn 0.572431 -0.026673 -0.819519
vn -1.000000 0.000000 -0.000001
vn 0.000000 -0.261294 0.965259
vn 0.000000 0.019904 -0.999802
vn 0.000000 0.025175 0.999683
vn 0.000000 -0.768956 0.639302
vn 0.999584 0.023355 0.016932
vn 0.000000 0.421802 -0.906688
vn -0.999584 0.023356 0.016931
vn -1.000000 0.000001 -0.000000
vn 0.000000 0.798298 -0.602263
vn -1.000000 0.000001 -0.000001
vn 0.000000 0.947310 0.320317
vn 0.000000 -0.902571 0.430541
vn 0.000000 0.963863 -0.266397
vn 0.000000 0.655806 0.754930
vn 0.000000 -0.986951 -0.161022
vn -1.000000 0.000001 0.000001
vn 0.000000 -0.728428 -0.685122
vn 0.000000 0.381552 -0.924348
vn 0.000000 0.330469 0.943817
vn -1.000000 0.000000 0.000001
vn 0.000000 -0.428508 -0.903538
vn -0.788206 0.615406 -0.002585
vn 0.909983 0.414642 -0.001743
vn 0.000000 0.389304 0.921109
vn -0.909983 0.414641 -0.001742
vn 0.000000 0.578595 -0.815615
vn 0.788206 0.615406 -0.002586
vn 0.000000 0.585429 0.810724
vn 0.000000 -0.999991 0.004201
vn 0.000000 -0.004202 -0.999991
vn 0.000000 0.004202 0.999991
vn 0.000000 0.999984 0.005599
vn -0.000002 0.999984 0.005614
vn -0.000001 0.999984 0.005593
vn -0.340761 0.006147 0.940130
vn 0.000003 0.999984 0.005599
vn 0.000002 0.999984 0.005592
vn 0.000001 0.999984 0.005601
vn 0.242536 0.004487 0.970132
vn 0.999328 0.001514 0.036633
vn -0.996253 0.003040 0.086433
vn 0.999323 0.000847 0.036768
vn -0.996233 0.001617 0.086706
vn -0.436081 -0.047064 -0.898676
vn -0.000001 0.999539 -0.030360
vn 0.000001 0.999539 -0.030346
vn -0.000001 0.999540 -0.030335
vn 0.000001 0.999539 -0.030360
vn 0.000000 0.999539 -0.030366
vn -1.000000 0.000000 0.000002
vn 0.000000 0.999539 -0.030346
vn -0.000001 0.999539 -0.030350
vn -0.000002 0.999539 -0.030370
vn 0.571878 -0.020251 -0.820088
vn 0.000001 -0.039025 -0.999238
vn -0.663087 -0.023198 -0.748183
vn 0.720039 -0.008752 0.693878
vn -1.000000 0.000000 0.000007
vn 0.000000 -0.021142 0.999777
vn -0.605944 -0.006372 0.795482
vn -0.000001 0.924631 -0.380864
vn -0.000000 0.924635 -0.380854
vn 0.000001 0.924631 -0.380865
vn 0.000003 0.924620 -0.380891
vn -0.000000 0.924634 -0.380856
vn -0.000001 0.924635 -0.380855
vn 0.000001 0.924631 -0.380864
vn -0.000000 0.924633 -0.380860
vn 0.000000 0.924632 -0.380862
vn -0.000002 0.924640 -0.380843
vn 0.000000 0.924627 -0.380874
vn 0.000001 0.924636 -0.380852
vn 0.000002 0.924636 -0.380851
vn -0.000000 0.924632 -0.380863
vn 0.000000 0.924635 -0.380855
vn 0.000000 0.924639 -0.380845
vn -0.000015 0.924648 -0.380822
vn -0.000000 0.924634 -0.380857
g Plane_Plane_None
usemtl None
s off
f 3/1/1 1/2/1 2/3/1 4/4/1
f 8/5/2 6/6/2 10/7/2 12/8/2
f 4/9/3 2/10/3 6/11/3 8/12/3
f 2/10/4 1/9/4 5/12/4 6/11/4
f 3/9/5 4/10/5 8/11/5 7/12/5
f 1/10/6 3/9/6 7/12/6 5/11/6
f 9/13/7 11/14/7 15/15/7 13/16/7
f 6/6/8 5/5/8 9/8/8 10/7/8
f 7/5/9 8/6/9 12/7/9 11/8/9
f 5/6/10 7/5/10 11/8/10 9/7/10
f 15/15/11 16/17/11 20/18/11 19/19/11
f 12/20/12 10/21/12 14/22/12 16/17/12
f 10/21/13 9/13/13 13/16/13 14/22/13
f 11/14/14 12/20/14 16/17/14 15/15/14
f 19/23/15 20/24/15 24/25/15 23/26/15
f 13/16/16 15/15/16 19/19/16 17/27/16
f 16/17/17 14/22/17 18/28/17 20/18/17
f 14/22/18 13/16/18 17/27/18 18/28/18
f 22/25/4 21/26/4 25/29/4 26/30/4
f 17/24/19 19/23/19 23/26/19 21/25/19
f 20/23/20 18/24/20 22/25/20 24/26/20
f 18/24/21 17/23/21 21/26/21 22/25/21
f 28/31/22 26/32/22 30/33/22 32/34/22
f 23/26/5 24/25/5 28/30/5 27/29/5
f 21/25/6 23/26/6 27/29/6 25/30/6
f 24/26/3 22/25/3 26/30/3 28/29/3
f 29/35/3 31/36/3 35/37/3 33/38/3
f 25/39/23 29/40/23 122/41/23
f 27/42/24 28/31/24 32/34/24 31/43/24
f 25/39/25 27/42/25 31/43/25 29/40/25
f 32/36/6 30/35/6 34/38/6 36/37/6
f 30/35/5 29/36/5 33/37/5 34/38/5
f 31/36/4 32/35/4 36/38/4 35/37/4
f 33/40/26 35/43/26 39/44/26 37/45/26
f 36/34/27 34/33/27 38/46/27 40/47/27
f 34/33/28 33/40/28 37/45/28 38/46/28
f 35/43/29 36/34/29 40/47/29 39/44/29
f 39/44/30 40/47/30 44/48/30 43/49/30
f 37/45/31 39/44/31 43/49/31 41/50/31
f 40/47/32 38/46/32 42/51/32 44/48/32
f 38/46/33 37/45/33 41/50/33 42/51/33
f 42/51/34 41/50/34 45/52/34 46/53/34
f 43/49/35 44/48/35 48/54/35 47/55/35
f 41/50/36 43/49/36 47/55/36 45/52/36
f 44/48/37 42/51/37 46/53/37 48/54/37
f 48/54/38 46/53/38 50/56/38 52/57/38
f 46/53/39 45/52/39 49/58/39 50/56/39
f 47/55/40 48/54/40 52/57/40 51/59/40
f 45/52/41 47/55/41 51/59/41 49/58/41
f 52/60/6 50/61/6 54/62/6 56/63/6
f 50/61/5 49/60/5 53/63/5 54/62/5
f 51/60/4 52/61/4 56/62/4 55/63/4
f 49/61/3 51/60/3 55/63/3 53/62/3
f 53/58/42 55/59/42 56/57/42 54/56/42
f 26/32/23 25/39/23 62/64/23
f 30/33/43 60/65/43 29/40/43
f 115/66/44 116/67/44 119/68/44 118/69/44
f 60/65/45 105/70/45 61/71/45
f 26/32/23 62/64/23 61/71/23
f 60/65/43 64/72/43 29/40/43
f 121/73/46 133/74/46 138/75/46 123/76/46
f 60/77/3 61/78/3 57/79/3 63/80/3
f 62/78/47 64/77/47 59/80/47 58/79/47
f 61/81/4 62/82/4 58/83/4 57/84/4
f 64/85/5 60/86/5 63/87/5 59/88/5
f 63/80/3 57/79/3 65/89/3 68/90/3
f 67/91/48 68/92/48 72/93/48 71/94/48
f 57/84/49 58/83/49 66/95/49 65/96/49
f 58/79/47 59/80/47 67/90/47 66/89/47
f 59/88/50 63/87/50 68/92/50 67/91/50
f 71/97/51 72/98/51 76/99/51 75/100/51
f 68/90/52 65/89/52 69/101/52 72/102/52
f 65/96/53 66/95/53 70/103/53 69/104/53
f 66/89/54 67/90/54 71/102/54 70/101/54
f 74/105/55 75/106/55 79/107/55 78/108/55
f 72/102/3 69/101/3 73/105/3 76/106/3
f 69/109/56 70/110/56 74/111/56 73/112/56
f 70/101/57 71/102/57 75/106/57 74/105/57
f 77/113/58 78/114/58 82/115/58 81/116/58
f 75/100/59 76/99/59 80/117/59 79/118/59
f 76/106/3 73/105/3 77/108/3 80/107/3
f 73/112/60 74/111/60 78/114/60 77/113/60
f 81/119/61 82/120/61 86/121/61 85/122/61
f 78/108/55 79/107/55 83/123/55 82/124/55
f 79/118/62 80/117/62 84/125/62 83/126/62
f 80/107/3 77/108/3 81/124/3 84/123/3
f 88/127/3 85/128/3 89/129/3 92/130/3
f 82/124/63 83/123/63 87/127/63 86/128/63
f 83/126/64 84/125/64 88/131/64 87/132/64
f 84/123/3 81/124/3 85/128/3 88/127/3
f 91/133/65 92/134/65 96/135/65 95/136/65
f 85/122/66 86/121/66 90/137/66 89/138/66
f 86/128/67 87/127/67 91/130/67 90/129/67
f 87/139/68 88/140/68 92/134/68 91/133/68
f 94/141/69 95/142/69 99/143/69 98/144/69
f 92/130/70 89/129/70 93/141/70 96/142/70
f 89/138/71 90/137/71 94/145/71 93/146/71
f 90/129/72 91/130/72 95/142/72 94/141/72
f 98/144/67 99/143/67 103/147/67 102/148/67
f 95/136/73 96/135/73 100/149/73 99/150/73
f 96/142/74 93/141/74 97/144/74 100/143/74
f 93/146/75 94/145/75 98/151/75 97/152/75
f 103/153/76 104/154/76 101/155/76 102/156/76
f 99/150/77 100/149/77 104/157/77 103/158/77
f 100/143/3 97/144/3 101/148/3 104/147/3
f 97/152/78 98/151/78 102/159/78 101/160/78
f 107/161/79 109/162/79 108/163/79
f 107/161/80 111/164/80 109/162/80
f 111/164/81 110/165/81 109/162/81
f 30/33/23 26/32/23 106/166/23
f 114/167/82 113/168/82 110/169/82 111/170/82
f 118/171/83 119/172/83 120/173/83
f 108/163/84 118/171/84 120/173/84
f 107/161/85 108/163/85 120/173/85
f 113/168/86 112/174/86 109/175/86 110/169/86
f 106/176/87 115/177/87 118/178/87 108/179/87
f 117/180/88 105/181/88 107/182/88 120/183/88
f 112/184/89 106/176/89 108/179/89 109/185/89
f 105/181/90 114/186/90 111/187/90 107/182/90
f 116/67/91 117/188/91 120/189/91 119/68/91
f 124/190/92 125/191/92 123/192/92
f 124/190/93 126/193/93 125/191/93
f 124/190/94 137/194/94 126/193/94
f 137/194/95 136/195/95 126/193/95
f 136/195/96 127/196/96 126/193/96
f 64/72/45 62/64/45 121/197/45
f 122/198/97 132/199/97 137/200/97 124/201/97
f 138/202/98 139/203/98 140/204/98
f 123/192/99 138/202/99 140/204/99
f 123/192/100 140/204/100 124/190/100
f 128/205/101 121/73/101 123/76/101 125/206/101
f 133/74/102 134/207/102 139/208/102 138/75/102
f 129/209/3 128/210/3 125/211/3 126/212/3
f 134/207/103 135/213/103 140/214/103 139/208/103
f 130/215/104 129/209/104 126/212/104 127/216/104
f 135/217/105 122/198/105 124/201/105 140/218/105
f 131/219/106 130/220/106 127/221/106 136/222/106
f 132/223/107 131/219/107 136/222/107 137/224/107
f 121/197/108 62/64/108 133/225/108
f 62/64/109 25/39/109 133/225/109
f 25/39/110 122/41/110 135/226/110
f 133/225/111 25/39/111 134/227/111
f 25/39/112 135/226/112 134/227/112
f 105/70/113 117/228/113 61/71/113
f 117/228/114 116/229/114 61/71/114
f 115/230/23 106/166/23 26/32/23
f 116/229/115 115/230/115 26/32/115
f 61/71/109 116/229/109 26/32/109
f 30/33/116 106/166/116 112/231/116
f 30/33/117 112/231/117 113/232/117
f 60/65/118 30/33/118 113/232/118
f 105/70/23 60/65/23 114/233/23
f 60/65/119 113/232/119 114/233/119
f 122/41/120 29/40/120 132/234/120
f 132/234/121 29/40/121 131/235/121
f 29/40/122 64/72/122 131/235/122
f 131/235/123 64/72/123 130/236/123
f 130/236/114 64/72/114 129/237/114
f 64/72/124 121/197/124 128/238/124
f 129/237/125 64/72/125 128/238/125
