# Blender v2.65 (sub 0) OBJ File: ''
# www.blender.org
mtllib warrior_statue.mtl
o Box005_Box005_01___Default
v 1.714200 2.581816 0.139504
v 1.865544 2.672408 0.193312
v 1.158368 3.659200 -0.015406
v 1.007016 3.568608 -0.069214
v 1.920944 2.684104 0.017808
v 1.213760 3.670888 -0.190918
v 1.769600 2.593504 -0.036000
v 1.062416 3.580296 -0.244726
vt 0.357100 0.790908
vt 0.432772 0.836204
vt 0.079184 1.329600
vt 0.003508 1.284304
vt 0.836204 0.596656
vt 0.842052 0.508904
vt 1.335444 0.404541
vt 1.329600 0.492296
vt 0.460472 0.842052
vt 0.384800 0.796752
vt 0.031208 1.290148
vt 0.106880 1.335444
vt 0.796752 0.482000
vt 0.790908 0.569752
vt 1.284304 0.465393
vt 1.290148 0.377636
vn -0.742912 -0.422620 0.519028
vn 0.327342 0.414197 0.849269
vn 0.284982 0.389477 0.875790
vn -0.775384 -0.465407 0.426740
vn 0.775384 0.465407 -0.426771
vn 0.742912 0.422620 -0.519059
vn -0.284982 -0.389477 -0.875790
vn -0.327342 -0.414228 -0.849269
g Box005_Box005_01___Default_Box005_Box005_01___Default_01___Default
usemtl 01___Default
s 1
f 1/1/1 2/2/2 3/3/3 4/4/4
f 2/5/2 5/6/5 6/7/6 3/8/3
f 5/9/5 7/10/7 8/11/8 6/12/6
f 7/13/7 1/14/1 4/15/4 8/16/8
o Cylinder001_Cylinder001_01___Default
v 1.587960 0.212648 -0.029824
v 0.717432 0.212648 -1.228008
v 0.717432 0.590600 -1.228008
v 1.587960 0.590600 -0.029824
v -0.691112 0.212648 -0.770344
v -0.691112 0.590600 -0.770344
v -0.691112 0.212648 0.710688
v -0.691112 0.590600 0.710688
v 0.717432 0.212648 1.168352
v 0.717432 0.590600 1.168352
vt 0.606324 0.485088
vt 0.606324 -0.114004
vt 0.795300 -0.114004
vt 0.795300 0.485088
vt 0.858716 0.606324
vt 0.154444 0.606324
vt 0.154444 0.795300
vt 0.858716 0.795300
vt 0.606324 0.114828
vt 0.606324 0.855344
vt 0.795300 0.855344
vt 0.795300 0.114828
vt 0.606324 0.084176
vt 0.606324 -0.514912
vt 0.795300 -0.514912
vt 0.795300 0.084176
vt 0.154444 0.855344
vt 0.858716 1.084176
vt 1.293980 0.485088
vt 0.154444 0.114828
vt 0.858716 -0.114004
vn 0.999969 0.000000 0.000000
vn 0.309000 0.000000 -0.951048
vn 0.248177 0.595691 -0.763878
vn 0.803186 0.595691 0.000000
vn -0.809015 0.000000 -0.587756
vn -0.649800 0.595691 -0.472091
vn -0.809015 0.000000 0.587756
vn -0.649800 0.595691 0.472091
vn 0.309000 0.000000 0.951048
vn 0.248177 0.595691 0.763878
g Cylinder001_Cylinder001_01___Default_Cylinder001_Cylinder001_01___Default_01___Default
usemtl 01___Default
s 1
f 9/17/9 10/18/10 11/19/11 12/20/12
f 10/21/10 13/22/13 14/23/14 11/24/11
f 13/25/13 15/26/15 16/27/16 14/28/14
f 15/22/15 17/21/17 18/24/18 16/23/16
f 17/29/17 9/30/9 12/31/12 18/32/18
f 16/33/16 18/34/18 12/35/12
f 14/36/14 16/33/16 12/35/12
f 14/36/14 12/35/12 11/37/11
o Box003_Box003_01___Default
v -0.157664 3.627832 -0.079366
v -0.321728 3.701535 -0.038622
v -0.685616 2.839959 0.763056
v -0.521552 2.766256 0.722320
v -0.397400 3.611664 -0.180766
v -0.761288 2.750087 0.620912
v -0.233336 3.537960 -0.221510
v -0.597224 2.676384 0.580168
vt 0.421168 0.313916
vt 0.339136 0.350768
vt 0.157192 -0.080021
vt 0.239224 -0.116872
vt 0.350768 0.480689
vt 0.305832 0.409617
vt -0.124956 0.810456
vt -0.080021 0.881528
vt 0.301300 0.305832
vt 0.383332 0.268980
vt 0.201388 -0.161808
vt 0.119356 -0.124956
vt 0.268980 0.389244
vt 0.313916 0.460317
vt -0.116872 0.861160
vt -0.161808 0.790084
vn 0.919431 -0.023072 0.392529
vn -0.285623 0.714682 0.638447
vn -0.335978 0.713736 0.614551
vn 0.886502 0.053194 0.459578
vn -0.886532 -0.053194 -0.459578
vn -0.919431 0.023072 -0.392529
vn 0.335978 -0.713736 -0.614551
vn 0.285623 -0.714682 -0.638447
g Box003_Box003_01___Default_Box003_Box003_01___Default_01___Default
usemtl 01___Default
s 1
f 19/38/19 20/39/20 21/40/21 22/41/22
f 20/42/20 23/43/23 24/44/24 21/45/21
f 23/46/23 25/47/25 26/48/26 24/49/24
f 25/50/25 19/51/19 22/52/22 26/53/26
o Box007_Box007_01___Default
v 0.595360 0.459264 0.077080
v 0.892560 0.459264 0.077080
v 0.892560 2.433848 0.077080
v 0.595360 2.433848 0.077080
v 0.892560 0.459264 -0.271864
v 0.892560 2.433848 -0.271864
v 0.595360 0.459264 -0.271864
v 0.595360 2.433848 -0.271864
vt 0.797680 0.729632
vt 0.946280 0.729632
vt 0.946280 1.716924
vt 0.797680 1.716924
vt 0.729632 0.538540
vt 0.729632 0.364068
vt 1.716924 0.364068
vt 1.716924 0.538540
vn -0.707083 0.000000 0.707083
vn 0.707083 0.000000 0.707083
vn 0.707083 0.000000 -0.707083
vn -0.707083 0.000000 -0.707083
g Box007_Box007_01___Default_Box007_Box007_01___Default_01___Default
usemtl 01___Default
s 1
f 27/54/27 28/55/28 29/56/28 30/57/27
f 28/58/28 31/59/29 32/60/29 29/61/28
f 31/55/29 33/54/30 34/57/30 32/56/29
f 33/59/30 27/58/27 30/61/27 34/60/30
o Box004_Box004_01___Default
v -0.639288 2.608736 0.635272
v -0.764352 2.677304 0.645384
v -0.841200 2.558800 0.498544
v -0.716144 2.490224 0.488432
v -0.673304 2.704544 0.575752
v -0.750160 2.586040 0.428912
v -0.549112 2.747784 0.807561
v -0.520600 2.809312 0.742984
v -0.122368 2.614536 0.801152
v -0.461120 2.901031 0.856640
v -0.489632 2.839511 0.921216
v -0.645656 2.877879 0.753096
v -0.674176 2.816359 0.817672
v -1.012928 3.102855 0.873160
v -0.614688 2.908080 0.931328
v -0.586176 2.969607 0.866753
v 0.116072 3.912983 2.143473
v -0.741648 2.806207 0.861184
v -0.678288 2.942919 0.717680
v -0.453128 2.819464 0.699472
v -0.516488 2.682751 0.842976
v -0.831824 2.667152 0.688888
v -0.768464 2.803872 0.545392
v -0.543304 2.680408 0.527184
v -0.606664 2.543696 0.670680
vt 0.180356 0.804368
vt 0.117824 0.838652
vt 0.079400 0.779400
vt 0.141928 0.745112
vt 0.117824 0.822692
vt 0.163348 0.787876
vt 0.124920 0.714456
vt 0.079400 0.749272
vt 0.852272 0.787876
vt 0.804368 0.817636
vt 0.745112 0.744216
vt 0.793020 0.714456
vt 0.225444 0.873892
vt 0.239700 0.904656
vt 0.438816 0.807268
vt 0.269440 0.950516
vt 0.255184 0.919755
vt 0.177172 0.938939
vt 0.162912 0.908180
vt -0.006464 1.051427
vt 0.192656 0.954040
vt 0.206912 0.984804
vt 0.919755 0.960608
vt 0.950516 0.928320
vt 1.456491 1.571736
vt 0.984804 0.933376
vt 0.954040 0.965664
vt 0.206912 0.933376
vt 0.558036 1.571736
vt 0.269440 0.928320
vt 0.177172 0.876548
vt -0.006464 0.936580
vt 0.239700 0.871492
vt 0.438816 0.900576
vt 0.558036 1.456491
vt 0.255184 0.960608
vt 0.162912 0.908836
vt 0.129176 0.903103
vt 0.160856 0.971460
vt 0.273436 0.909732
vt 0.241756 0.841375
vt 0.084088 0.833576
vt 0.115768 0.901936
vt 0.163348 0.852272
vt 0.228348 0.840204
vt 0.196668 0.771848
vt 0.841375 0.921488
vt 0.771848 0.835340
vt 0.840204 0.763592
vt 0.909732 0.849736
vt 0.124920 0.793020
vt 0.833576 0.844444
vt 0.903103 0.930592
vt 0.971460 0.858840
vt 0.901936 0.772696
vn -0.304499 -0.657033 0.689629
vn -0.510411 0.779900 -0.362267
vn 0.879968 0.017515 -0.474711
vn -0.216123 -0.657447 -0.721841
vn 0.526332 0.487396 0.696720
vn -0.526316 -0.487369 -0.696751
vn 0.216120 0.657454 0.721835
vn 0.889437 -0.455218 -0.040966
vn -0.858366 0.503122 0.100376
vn 0.314590 0.672475 -0.669933
vn 0.209731 0.704320 -0.678194
vn 0.304523 0.657022 -0.689629
vn 0.350806 0.560140 -0.750452
vn 0.454420 0.861951 -0.224816
vn -0.294196 -0.641087 0.708841
vn -0.395828 -0.602290 0.693229
vn -0.304501 -0.657045 0.689616
vn -0.253579 -0.743923 0.618284
vn -0.069248 -0.267988 0.960930
vn -0.377192 -0.581673 -0.720682
vn -0.377211 -0.581676 -0.720670
vn -0.377260 -0.581608 -0.720699
vn -0.377213 -0.581703 -0.720647
vn -0.377243 -0.581643 -0.720680
vn -0.377220 -0.581688 -0.720655
vn -0.377111 -0.581674 -0.720724
vn -0.377220 -0.581690 -0.720654
vn -0.377178 -0.581640 -0.720716
vn -0.377233 -0.581676 -0.720658
vn -0.377196 -0.581609 -0.720732
vn -0.377236 -0.581650 -0.720677
vn -0.377293 -0.581595 -0.720692
vn -0.377173 -0.581656 -0.720706
vn -0.377167 -0.581577 -0.720773
vn -0.898526 -0.438246 0.022889
vn -0.898526 -0.438246 0.022858
vn 0.111362 -0.992035 -0.058779
vn 0.111393 -0.992035 -0.058748
vn -0.546953 0.320383 -0.773400
vn 0.462966 -0.233375 -0.855068
vn 0.334025 -0.922269 -0.194464
vn -0.974822 -0.204566 -0.088626
vn 0.038331 0.213904 -0.976074
g Box004_Box004_01___Default_Box004_Box004_01___Default_01___Default
usemtl 01___Default
s off
f 35/62/31 36/63/31 37/64/31 38/65/31
f 36/66/32 39/67/32 40/68/32 37/69/32
f 39/70/33 35/71/33 38/72/33 40/73/33
f 41/74/34 42/75/34 43/76/34
f 44/77/35 45/78/35 43/76/35
f 46/79/36 47/80/36 48/81/36
f 49/82/37 50/83/37 48/81/37
f 45/84/38 44/85/38 51/86/38
f 50/87/39 49/88/39 51/86/39
f 50/89/40 51/90/40 44/91/40
f 46/92/41 48/93/41 50/89/41
f 46/79/42 50/83/42 44/77/42
f 46/79/43 44/77/43 43/76/43
f 42/94/44 46/92/44 43/95/44
f 45/78/45 51/96/45 49/82/45
f 49/82/46 48/81/46 47/80/46
f 45/78/47 49/82/47 47/80/47
f 43/95/48 45/97/48 47/98/48
f 43/76/49 47/80/49 41/74/49
f 52/99/50 53/100/50 46/79/50
f 46/79/51 53/100/51 54/101/51
f 52/99/52 46/79/52 47/80/52
f 42/75/53 46/79/53 54/101/53
f 42/75/54 54/101/54 55/102/54
f 52/99/55 47/80/55 41/74/55
f 41/74/56 42/75/56 55/102/56
f 55/102/57 52/99/57 41/74/57
f 56/103/58 57/104/58 39/105/58
f 39/105/59 57/104/59 58/106/59
f 56/103/60 39/105/60 36/63/60
f 35/62/61 39/105/61 58/106/61
f 35/62/62 58/106/62 59/107/62
f 36/63/63 35/62/63 56/103/63
f 56/103/64 35/62/64 59/107/64
s 1
f 52/99/65 56/103/66 59/107/67 55/102/68
f 53/100/69 54/101/70 58/106/70 57/104/69
f 55/108/68 59/109/67 58/110/70 54/111/70
f 38/65/71 37/64/72 40/112/73
f 56/113/66 52/114/65 53/115/69 57/116/69
o Box001_Box001_01___Default
v 0.409976 3.902336 0.110698
v 0.231176 3.905904 -0.034174
v 0.231176 3.751672 -0.034174
v 0.409976 3.748104 0.110706
v 0.409976 3.902304 -0.263510
v 0.409976 3.748071 -0.263502
v 0.588768 3.905904 -0.034174
v 0.588768 3.751672 -0.034174
v 0.051600 4.594584 0.289602
v 0.409976 4.692976 0.396714
v 0.409976 4.859335 0.018002
v 0.021736 4.638904 0.018002
v 0.768344 4.594584 0.289602
v 0.798208 4.638904 0.018002
v 0.409976 4.902959 -0.496846
v 0.051600 4.686615 -0.253606
v 0.768344 4.686615 -0.253606
v 0.051600 4.136608 0.260386
v 0.409976 4.028664 0.290082
v 0.409976 4.283743 0.575778
v 0.000128 4.356015 0.385402
v 0.768344 4.136608 0.260386
v 0.819816 4.356015 0.385402
v 0.769416 4.051271 0.018002
v 0.885696 4.345088 0.018002
v 0.768344 4.095600 -0.253606
v 0.819816 4.427032 -0.291646
v 0.409976 3.997207 -0.360710
v 0.409976 4.345088 -0.496246
v 0.051600 4.095600 -0.253606
v 0.000128 4.427032 -0.291646
v 0.050528 4.051271 0.018002
v -0.065744 4.345088 0.018002
vt 0.704988 0.451168
vt 0.615588 0.452952
vt 0.615588 0.375836
vt 0.704988 0.374052
vt 0.452952 0.482913
vt 0.451152 0.368244
vt 0.374035 0.368249
vt 0.375836 0.482913
vt 0.794384 0.452952
vt 0.794384 0.375836
vt 0.525800 0.644800
vt 0.704988 0.698357
vt 0.704988 0.509000
vt 0.510868 0.509000
vt 0.884172 0.644800
vt 0.899104 0.509000
vt 0.704988 0.251576
vt 0.525800 0.373196
vt 0.884172 0.373196
vt 0.525800 0.568304
vt 0.704988 0.514332
vt 0.704988 0.641871
vt 0.500064 0.678008
vt 0.884172 0.568304
vt 0.909908 0.678008
vt 0.704988 0.846488
vt 0.525800 0.797292
vt 0.884172 0.797292
vt 0.568304 0.630193
vt 0.525635 0.509000
vt 0.672544 0.509000
vt 0.678008 0.692701
vt 0.547800 0.373196
vt 0.713516 0.354177
vt 0.819452 0.509000
vt 0.797292 0.644800
vt 0.843307 0.373196
vt 0.884172 0.547800
vt 0.704988 0.498603
vt 0.704988 0.672544
vt 0.909908 0.713516
vt 0.525800 0.547800
vt 0.500064 0.713516
vt 0.704988 0.951479
vt 0.884172 0.843307
vt 0.525800 0.843307
vt 0.884708 0.509000
vt 0.794384 0.482913
vt 0.704988 0.368244
vt 0.704988 0.319645
vt 0.615588 0.482913
vt 0.525264 0.509000
vt 0.704988 0.645041
vt 0.704988 0.555349
vt 0.884172 0.630193
vt 0.525800 0.630193
vn -0.629547 0.000020 0.776962
vn -0.788634 -0.000016 -0.614863
vn 0.788647 -0.000016 -0.614846
vn 0.629564 0.000020 0.776948
vn -0.659871 0.572771 0.486251
vn 0.000000 0.732658 0.680563
vn 0.000000 0.978729 0.205115
vn -0.786035 0.607959 0.111698
vn 0.659871 0.572771 0.486251
vn 0.786035 0.607959 0.111698
vn 0.000000 0.740501 -0.672018
vn -0.764214 0.527665 -0.370830
vn 0.764214 0.527665 -0.370830
vn -0.649922 -0.624897 0.432508
vn 0.000000 -0.757683 0.652577
vn 0.000000 -0.184332 0.982849
vn -0.758293 -0.066195 0.648488
vn 0.649922 -0.624897 0.432508
vn 0.758293 -0.066195 0.648518
vn 0.769890 -0.631886 0.089084
vn 0.998962 -0.044465 0.009186
vn 0.705344 -0.485183 -0.516770
vn 0.820917 -0.023041 -0.570544
vn 0.000000 -0.525315 -0.850887
vn 0.000000 -0.116520 -0.993164
vn -0.705344 -0.485183 -0.516770
vn -0.820917 -0.023041 -0.570544
vn -0.769890 -0.631886 0.089084
vn -0.998962 -0.044465 0.009186
vn 0.784478 -0.605884 0.132084
vn 0.000000 -0.610157 -0.792261
vn -0.784478 -0.605884 0.132084
vn 0.000000 -0.599200 0.800562
g Box001_Box001_01___Default_Box001_Box001_01___Default_01___Default
usemtl 01___Default
s off
f 60/117/74 61/118/74 62/119/74 63/120/74
f 61/121/75 64/122/75 65/123/75 62/124/75
f 64/122/76 66/121/76 67/124/76 65/123/76
f 66/125/77 60/117/77 63/120/77 67/126/77
s 1
f 68/127/78 69/128/79 70/129/80 71/130/81
f 69/128/79 72/131/82 73/132/83 70/129/80
f 71/130/81 70/129/80 74/133/84 75/134/85
f 70/129/80 73/132/83 76/135/86 74/133/84
f 77/136/87 78/137/88 79/138/89 80/139/90
f 78/137/88 81/140/91 82/141/92 79/138/89
f 80/139/90 79/138/89 69/142/79 68/143/78
f 79/138/89 82/141/92 72/144/82 69/142/79
f 81/145/91 83/146/93 84/147/94 82/148/92
f 83/146/93 85/149/95 86/150/96 84/147/94
f 82/148/92 84/147/94 73/151/83 72/152/82
f 84/147/94 86/150/96 76/153/86 73/151/83
f 85/154/95 87/155/97 88/156/98 86/157/96
f 87/155/97 89/158/99 90/159/100 88/156/98
f 86/157/96 88/156/98 74/160/84 76/161/86
f 88/156/98 90/159/100 75/162/85 74/160/84
f 89/149/99 91/146/101 92/147/102 90/150/100
f 91/146/101 77/145/87 80/148/90 92/147/102
f 90/150/100 92/147/102 71/151/81 75/153/85
f 92/147/102 80/148/90 68/152/78 71/151/81
f 85/135/95 83/163/93 66/164/103
f 85/135/95 66/164/103 64/165/104
f 87/166/97 85/135/95 64/165/104
f 61/167/105 91/168/101 89/134/99
f 64/165/104 61/167/105 89/134/99
f 64/165/104 89/134/99 87/166/97
f 78/169/88 60/170/106 81/171/91
f 81/171/91 60/170/106 83/163/93
f 83/163/93 60/170/106 66/164/103
f 60/170/106 78/169/88 77/172/87
f 91/168/101 60/170/106 77/172/87
f 60/170/106 91/168/101 61/167/105
o Cylinder002_Cylinder002_01___Default
v 1.738712 3.221184 -0.675806
v 1.254744 3.268152 0.538753
v 1.331368 3.327440 0.566985
v 1.815328 3.280480 -0.647566
v 2.103328 2.328744 0.208600
v 2.179952 2.388040 0.236840
vt 0.369356 0.162097
vt 0.127372 0.769376
vt 0.165684 0.783492
vt 0.407664 0.176217
vt 0.127372 0.134076
vt 0.551664 -0.335628
vt 0.589976 -0.305980
vt 0.165684 0.163720
vt 0.551664 0.664372
vt 0.369356 1.110592
vt 0.407664 1.140240
vt 0.589976 0.694020
vt 0.134076 0.769376
vt 0.110592 0.162097
vt -0.335628 0.604300
vt 0.140240 0.176217
vt 0.163720 0.783492
vt -0.305980 0.618420
vn -0.377300 -0.015442 -0.925932
vn -0.910459 0.036256 0.411969
vn -0.068117 0.688070 0.722404
vn 0.464949 0.636372 -0.615467
vn 0.024323 -0.998535 0.048280
vn 0.866634 -0.346660 0.358745
g Cylinder002_Cylinder002_01___Default_Cylinder002_Cylinder002_01___Default_01___Default
usemtl 01___Default
s 1
f 93/173/107 94/174/108 95/175/109 96/176/110
f 94/177/108 97/178/111 98/179/112 95/180/109
f 97/181/111 93/182/107 96/183/110 98/184/112
f 94/185/108 93/186/107 97/187/111
f 96/188/110 95/189/109 98/190/112
o Box002_Box002_01___Default
v -0.443152 2.074392 -0.379376
v 0.405992 2.285960 -0.447440
v 0.326008 2.292552 0.297248
v -0.443152 2.074392 0.198816
v 0.485968 2.292552 0.297248
v 0.405992 2.229232 0.343080
v 0.181328 3.818487 -0.379374
v -0.851000 3.810920 -0.379374
v -0.851000 3.810920 0.198818
v 0.181328 3.818487 0.198818
v 0.405992 2.764400 0.198816
v -0.116808 2.654896 0.062448
v 0.405992 3.438576 0.423522
v -0.188832 3.540184 0.198818
v 0.405992 3.536568 -0.482534
v -0.207576 3.457728 -0.379374
v -0.116808 2.654896 -0.263512
v 0.405992 3.793648 -0.379374
v 0.630648 3.818487 -0.379374
v 1.255128 2.074392 -0.379376
v 1.255128 2.074392 0.198816
v 1.662976 3.810920 -0.379374
v 0.630648 3.818487 0.198818
v 1.662976 3.810920 0.198818
v 0.928784 2.654896 0.062448
v 1.000808 3.540184 0.198818
v 0.405992 3.793648 0.198818
v 1.019552 3.457728 -0.379374
v 0.928784 2.654896 -0.263512
v 1.000808 3.540184 -0.090278
v 0.405992 2.750272 -0.387960
v -0.188832 3.540184 -0.090278
vt 0.278424 0.310312
vt 0.702996 0.276280
vt 0.663004 0.648624
vt 0.278424 0.599408
vt 0.742984 0.648624
vt 0.702996 0.671540
vt 0.590664 0.310313
vt 0.074500 0.310313
vt 0.074500 0.599409
vt 0.590664 0.599409
vt 0.702996 0.882200
vt 0.441596 0.827448
vt 0.278424 0.537196
vt 0.663004 0.646276
vt 0.702996 0.614616
vt 0.742984 0.646276
vt 0.702996 0.219288
vt 0.405584 0.270092
vt 0.441596 -0.172552
vt 0.702996 -0.117800
vt 0.590664 0.409244
vt 0.074500 0.405460
vt 0.702996 0.268284
vt 0.396212 0.228864
vt 0.827448 0.368244
vt 0.537196 0.310312
vt 0.537196 0.599408
vt 0.827448 0.531224
vt 0.702996 0.396824
vt 0.815324 0.409244
vt 1.127564 0.310312
vt 1.127564 0.599408
vt 0.331488 0.310313
vt -0.184676 0.310313
vt -0.184676 0.599409
vt 0.331488 0.599409
vt 1.127564 0.537196
vt 0.964392 0.827448
vt 0.964392 -0.172552
vt 1.000404 0.270092
vt 1.331488 0.405460
vt 1.009776 0.228864
vt 0.000404 0.599409
vt 0.000404 0.454861
vt 0.009776 0.310313
vt 0.270092 0.454861
vt 0.270092 0.599409
vt -0.172552 0.531224
vt -0.172552 0.368244
vt 0.228864 0.310313
vt 0.702996 0.875136
vt 0.702996 1.268284
vt 1.009776 1.228864
vt 0.702996 0.642980
vt 0.702996 0.599409
vt 0.815324 0.599409
vt 0.815324 0.310313
vt 0.405584 0.599409
vt 0.405584 0.454861
vt 0.396212 0.310313
vt 1.270092 0.599409
vt 1.270092 0.454861
vt 1.228864 0.310313
vt 0.702996 -0.124864
vt 0.396212 1.228864
vn -0.665914 -0.491256 -0.561418
vn 0.000000 -0.540574 -0.841273
vn -0.019257 -0.514756 0.857082
vn -0.666005 -0.492080 0.560564
vn 0.019257 -0.514756 0.857082
vn 0.000000 -0.636189 0.771508
vn -0.031434 0.763390 -0.645131
vn -0.842799 0.212348 -0.494522
vn -0.837489 0.233467 0.494034
vn -0.019135 0.815821 0.577960
vn 0.000000 0.000977 0.999969
vn -0.770348 0.193915 0.607379
vn 0.000000 0.006409 0.999969
vn -0.549089 -0.284463 0.785821
vn 0.000000 0.047487 -0.998840
vn -0.595965 -0.311136 -0.740257
vn -0.735038 0.178381 -0.654103
vn 0.000000 0.189642 -0.981842
vn 0.033204 0.760796 -0.648122
vn 0.665914 -0.491256 -0.561418
vn 0.666005 -0.492080 0.560564
vn 0.842799 0.212348 -0.494522
vn 0.033540 0.808405 0.587634
vn 0.837489 0.233467 0.494034
vn 0.770379 0.193915 0.607379
vn 0.549089 -0.284463 0.785821
vn -0.014924 0.870907 0.491195
vn 0.595965 -0.311136 -0.740257
vn 0.735038 0.178381 -0.654103
vn 0.798517 -0.596026 0.084231
vn 0.000000 -0.025941 -0.999634
vn -0.798517 -0.596026 0.084231
g Box002_Box002_01___Default_Box002_Box002_01___Default_01___Default
usemtl 01___Default
s 1
f 99/191/113 100/192/114 101/193/115 102/194/116
f 100/192/114 103/195/117 104/196/118 101/193/115
f 105/197/119 106/198/120 107/199/121 108/200/122
f 109/201/123 110/202/124 102/203/116 101/204/115
f 104/205/118 103/206/117 109/201/123 101/204/115
f 111/207/125 112/208/126 110/209/124 109/210/123
f 108/211/122 107/212/121 112/208/126 111/207/125
f 105/211/119 113/213/127 114/214/128 106/212/120
f 115/215/129 99/216/113 102/217/116 110/218/124
f 113/213/127 105/211/119 116/219/130 117/220/131
f 100/192/114 118/221/132 119/222/133 103/195/117
f 120/223/134 117/224/131 121/225/135 122/226/136
f 109/201/123 103/206/117 119/227/133 123/228/137
f 111/207/125 109/210/123 123/229/137 124/230/138
f 121/220/135 111/207/125 124/230/138 122/231/136
f 111/207/125 121/220/135 125/219/139 108/211/122
f 117/220/131 120/231/134 126/232/140 113/213/127
f 123/218/137 119/217/133 118/216/132 127/215/141
f 122/226/136 124/233/138 128/234/142
f 120/223/134 122/226/136 128/234/142
f 120/223/134 128/234/142 126/235/140
f 128/236/142 124/237/138 123/238/137
f 128/236/142 123/238/137 127/239/141
f 126/240/140 128/236/142 127/239/141
f 129/241/143 113/242/127 126/243/140
f 129/241/143 126/243/140 127/228/141
f 100/244/114 129/241/143 127/228/141
f 100/244/114 127/228/141 118/227/132
f 105/197/119 108/200/122 125/245/139
f 105/197/119 125/245/139 121/246/135
f 105/197/119 121/246/135 117/247/131
f 116/219/130 105/211/119 117/220/131
f 112/248/126 107/199/121 106/198/120
f 130/249/144 112/248/126 106/198/120
f 114/250/128 130/249/144 106/198/120
f 110/218/124 112/251/126 130/252/144
f 115/215/129 110/218/124 130/252/144
f 115/215/129 130/252/144 114/253/128
f 114/214/128 113/213/127 129/254/143
f 115/202/129 114/255/128 129/241/143
f 115/202/129 129/241/143 100/244/114
f 99/203/113 115/202/129 100/244/114
o Box006_Box006_01___Default
v -0.037000 0.459264 0.077080
v 0.260200 0.459264 0.077080
v 0.260200 2.433848 0.077080
v -0.037000 2.433848 0.077080
v 0.260200 0.459264 -0.271864
v 0.260200 2.433848 -0.271864
v -0.037000 0.459264 -0.271864
v -0.037000 2.433848 -0.271864
vt 0.481500 0.729632
vt 0.630100 0.729632
vt 0.630100 1.716924
vt 0.481500 1.716924
vt 0.729632 0.538540
vt 0.729632 0.364068
vt 1.716924 0.364068
vt 1.716924 0.538540
g Box006_Box006_01___Default_Box006_Box006_01___Default_01___Default
usemtl 01___Default
s 1
f 131/256/27 132/257/28 133/258/28 134/259/27
f 132/260/28 135/261/29 136/262/29 133/263/28
f 135/257/29 137/256/30 138/259/30 136/258/29
f 137/261/30 131/260/27 134/263/27 138/262/30
